<svg version="1.1" xmlns="http://www.w3.org/2000/svg" viewBox="0 0 1933.5097298625142 1355.5959910438405" width="3867.0194597250284" height="2711.191982087681">
  <!-- svg-source:excalidraw -->
  
  <defs>
    <style class="style-fonts">
      @font-face {
        font-family: "Virgil";
        src: url("https://excalidraw.com/Virgil.woff2");
      }
      @font-face {
        font-family: "Cascadia";
        src: url("https://excalidraw.com/Cascadia.woff2");
      }
      @font-face {
        font-family: "Assistant";
        src: url("https://excalidraw.com/Assistant-Regular.woff2");
      }
    </style>
    
  </defs>
  <g stroke-linecap="round" transform="translate(52.80148530268741 573.4136201242169) rotate(0 100.50000000805665 100.63085947081437)"><path d="M32 0 C72.04 2.48, 109.99 -0.94, 169 0 M32 0 C67.83 -0.02, 101.99 -1.08, 169 0 M169 0 C188.58 0.02, 200.77 12.58, 201 32 M169 0 C191.44 -2.22, 199.66 9.72, 201 32 M201 32 C202.12 79.14, 200.18 130.77, 201 169.26 M201 32 C201.44 61.51, 201.38 91.27, 201 169.26 M201 169.26 C200.05 192.04, 188.5 200.58, 169 201.26 M201 169.26 C198.96 190.74, 189.28 200.77, 169 201.26 M169 201.26 C121.15 200.94, 70.01 201.36, 32 201.26 M169 201.26 C134.67 200.6, 102.38 200.33, 32 201.26 M32 201.26 C9.75 201.34, -0.02 190.12, 0 169.26 M32 201.26 C10.43 200.3, -1 191.48, 0 169.26 M0 169.26 C1.07 135.36, 1.13 101.2, 0 32 M0 169.26 C-0.13 131.63, -1.27 93.56, 0 32 M0 32 C-1.98 11.9, 11.69 -1.21, 32 0 M0 32 C1.06 10.75, 9.53 0, 32 0" stroke="#000000" stroke-width="1" fill="none"></path></g><g stroke-linecap="round" transform="translate(51.55539155268741 786.8823701242169) rotate(0 100.50000000805665 100.63085947081439)"><path d="M32 0 C82.58 0.39, 130.64 1.38, 169 0 M32 0 C80.28 1.43, 130.21 0.81, 169 0 M169 0 C191.1 -0.6, 200.68 11.51, 201 32 M169 0 C189.77 1.88, 202.21 10.28, 201 32 M201 32 C201.51 84.86, 199.85 140.03, 201 169.26 M201 32 C200.75 62.36, 201.23 91.35, 201 169.26 M201 169.26 C202.05 191.69, 190 199.76, 169 201.26 M201 169.26 C203.1 192.32, 188.78 201.6, 169 201.26 M169 201.26 C131.8 202.55, 96.77 199.9, 32 201.26 M169 201.26 C131.15 202.26, 94.31 201.15, 32 201.26 M32 201.26 C10.39 201.35, -0.62 189.23, 0 169.26 M32 201.26 C8.6 199.19, 0.87 189.72, 0 169.26 M0 169.26 C1.85 123.85, -0.41 76.92, 0 32 M0 169.26 C0.78 123.42, 0.87 77.1, 0 32 M0 32 C1.28 9.04, 11.7 0.87, 32 0 M0 32 C0.39 11.03, 8.59 -0.73, 32 0" stroke="#000000" stroke-width="1" fill="none"></path></g><g stroke-linecap="round" transform="translate(58.61007905268741 1002.8706513742169) rotate(0 100.50000000805665 100.63085947081441)"><path d="M32 0 C81.37 0.54, 130.05 0.27, 169 0 M32 0 C72.38 0.63, 115.07 -1.26, 169 0 M169 0 C190.77 -0.18, 200.86 11.07, 201 32 M169 0 C191.58 -1, 201.61 9.49, 201 32 M201 32 C199.22 81.42, 198.1 125.59, 201 169.26 M201 32 C202.6 72.87, 202.32 113.91, 201 169.26 M201 169.26 C199.71 191.9, 189.96 202.16, 169 201.26 M201 169.26 C201.29 192.01, 189.99 201.76, 169 201.26 M169 201.26 C119 199.82, 69.81 200.05, 32 201.26 M169 201.26 C122.88 201.89, 76.04 202.03, 32 201.26 M32 201.26 C11.71 199.51, -0.33 191.18, 0 169.26 M32 201.26 C9.79 199.23, -0.6 192.33, 0 169.26 M0 169.26 C1.54 127.03, 1.33 86.19, 0 32 M0 169.26 C0.64 117.2, 0.17 62.91, 0 32 M0 32 C-0.09 11.85, 12.17 -1.92, 32 0 M0 32 C-0.13 8.93, 9.95 0.02, 32 0" stroke="#000000" stroke-width="1" fill="none"></path></g><g stroke-linecap="round"><g transform="translate(253.30707549664862 738.76050240699) rotate(0 76.09539455649622 20.865291614062002)"><path d="M0.32 0.73 C25.88 7.7, 127.88 35.67, 153.13 42.67 M-0.97 0.06 C24.54 6.63, 127.37 34.23, 152.67 41.05" stroke="#000000" stroke-width="1" fill="none"></path></g><g transform="translate(253.30707549664862 738.76050240699) rotate(0 76.09539455649622 20.865291614062002)"><path d="M127.77 43.21 C135.96 44.1, 143.31 41.32, 152.67 41.05 M127.77 43.21 C137.52 42.56, 146.55 40.94, 152.67 41.05" stroke="#000000" stroke-width="1" fill="none"></path></g><g transform="translate(253.30707549664862 738.76050240699) rotate(0 76.09539455649622 20.865291614062002)"><path d="M132.2 26.7 C139.26 32.23, 145.37 34.09, 152.67 41.05 M132.2 26.7 C140.25 32.43, 147.58 37.16, 152.67 41.05" stroke="#000000" stroke-width="1" fill="none"></path></g></g><mask></mask><g stroke-linecap="round"><g transform="translate(743.945234891295 790.5759385129818) rotate(0 117.00685686060956 -82.61694294526833)"><path d="M0.5 0.5 C39.46 -27.04, 195.49 -137.51, 234.31 -164.97 M-0.7 -0.29 C38.08 -28.23, 194.67 -139.32, 233.51 -166.96" stroke="#000000" stroke-width="1" fill="none"></path></g><g transform="translate(743.945234891295 790.5759385129818) rotate(0 117.00685686060956 -82.61694294526833)"><path d="M219.31 -146.38 C225.02 -153.1, 229.56 -161.72, 233.51 -166.96 M219.31 -146.38 C225.26 -154.33, 230.58 -162.06, 233.51 -166.96" stroke="#000000" stroke-width="1" fill="none"></path></g><g transform="translate(743.945234891295 790.5759385129818) rotate(0 117.00685686060956 -82.61694294526833)"><path d="M209.41 -160.32 C218.59 -162.24, 226.56 -166.02, 233.51 -166.96 M209.41 -160.32 C218.99 -163.02, 228.06 -165.47, 233.51 -166.96" stroke="#000000" stroke-width="1" fill="none"></path></g></g><mask></mask><g stroke-linecap="round"><g transform="translate(1141.4941048625142 525.7041257800037) rotate(0 71.533203125 26.021970048493444)"><path d="M0.16 0.59 C23.81 9.22, 118.77 42.81, 142.42 51.44 M-1.21 -0.14 C22.78 8.66, 120.52 43.66, 144.79 52.66" stroke="#000000" stroke-width="1" fill="none"></path></g><g transform="translate(1141.4941048625142 525.7041257800037) rotate(0 71.533203125 26.021970048493444)"><path d="M119.79 52.67 C129.38 51.55, 135.99 50.96, 144.79 52.66 M119.79 52.67 C127.9 53.71, 135.2 52.48, 144.79 52.66" stroke="#000000" stroke-width="1" fill="none"></path></g><g transform="translate(1141.4941048625142 525.7041257800037) rotate(0 71.533203125 26.021970048493444)"><path d="M125.64 36.6 C133.17 41.02, 137.77 45.95, 144.79 52.66 M125.64 36.6 C131.71 42.88, 137.1 46.91, 144.79 52.66" stroke="#000000" stroke-width="1" fill="none"></path></g></g><mask></mask><g stroke-linecap="round"><g transform="translate(1137.8261361125142 628.3017820300037) rotate(0 74.146484375 -0.36084245150655647)"><path d="M0.69 -0.18 C25.54 -0.39, 124.32 -0.32, 148.99 -0.41 M-0.4 -1.32 C24.36 -1.98, 123.65 -2.68, 148.4 -2.37" stroke="#000000" stroke-width="1" fill="none"></path></g><g transform="translate(1137.8261361125142 628.3017820300037) rotate(0 74.146484375 -0.36084245150655647)"><path d="M124.9 6.16 C131.42 4.69, 139.11 1.71, 148.4 -2.37 M124.9 6.16 C131.06 2.99, 138.76 1.6, 148.4 -2.37" stroke="#000000" stroke-width="1" fill="none"></path></g><g transform="translate(1137.8261361125142 628.3017820300037) rotate(0 74.146484375 -0.36084245150655647)"><path d="M124.92 -10.94 C131.55 -7.41, 139.23 -5.39, 148.4 -2.37 M124.92 -10.94 C131.14 -9.01, 138.84 -5.31, 148.4 -2.37" stroke="#000000" stroke-width="1" fill="none"></path></g></g><mask></mask><g stroke-linecap="round"><g transform="translate(1144.1581673625142 709.4150632800037) rotate(0 70.958984375 -15.853029951506556)"><path d="M-0.23 0.15 C23.47 -5.08, 118.95 -25.95, 142.58 -31.42 M-1.81 -0.81 C21.76 -6.43, 118.24 -28.22, 141.98 -33.4" stroke="#000000" stroke-width="1" fill="none"></path></g><g transform="translate(1144.1581673625142 709.4150632800037) rotate(0 70.958984375 -15.853029951506556)"><path d="M120.91 -19.94 C128.13 -23.24, 135.3 -29.35, 141.98 -33.4 M120.91 -19.94 C126.08 -22.1, 130.55 -25.68, 141.98 -33.4" stroke="#000000" stroke-width="1" fill="none"></path></g><g transform="translate(1144.1581673625142 709.4150632800037) rotate(0 70.958984375 -15.853029951506556)"><path d="M117.19 -36.63 C125.64 -34.41, 134.04 -35.01, 141.98 -33.4 M117.19 -36.63 C123.25 -35.16, 128.53 -35.11, 141.98 -33.4" stroke="#000000" stroke-width="1" fill="none"></path></g></g><mask></mask><g stroke-linecap="round"><g transform="translate(1027.7675423625142 946.141135345965) rotate(0 13.001953125 -12.729002673710312)"><path d="M-0.21 -0.56 C3.76 -4.78, 20.48 -20.44, 24.82 -24.6 M-1.78 1.77 C2.45 -2.85, 22.46 -21.94, 26.91 -26.28" stroke="#000000" stroke-width="1" fill="none"></path></g><g transform="translate(1027.7675423625142 946.141135345965) rotate(0 13.001953125 -12.729002673710312)"><path d="M18.92 -9.93 C21.04 -17.99, 26.25 -22.8, 26.91 -26.28 M18.92 -9.93 C20.9 -13.99, 22.89 -19.85, 26.91 -26.28" stroke="#000000" stroke-width="1" fill="none"></path></g><g transform="translate(1027.7675423625142 946.141135345965) rotate(0 13.001953125 -12.729002673710312)"><path d="M10.28 -18.89 C15.77 -23.49, 24.3 -24.86, 26.91 -26.28 M10.28 -18.89 C14.8 -20.4, 19.33 -23.62, 26.91 -26.28" stroke="#000000" stroke-width="1" fill="none"></path></g></g><mask></mask><g stroke-linecap="round"><g transform="translate(1145.5253548625142 951.012229095965) rotate(0 1.23828125 16.913575451289688)"><path d="M0.51 -0.31 C0.92 5.38, 1.71 28.18, 2.05 33.81 M0.11 0.72 C0.72 6.53, 2.71 28.97, 3.07 34.5" stroke="#000000" stroke-width="1" fill="none"></path></g><g transform="translate(1145.5253548625142 951.012229095965) rotate(0 1.23828125 16.913575451289688)"><path d="M-3.97 19.07 C-2.9 21.85, -0.88 26.09, 3.07 34.5 M-3.97 19.07 C-2.65 22.46, -0.54 26.48, 3.07 34.5" stroke="#000000" stroke-width="1" fill="none"></path></g><g transform="translate(1145.5253548625142 951.012229095965) rotate(0 1.23828125 16.913575451289688)"><path d="M7.6 18.15 C6.06 21.2, 5.49 25.65, 3.07 34.5 M7.6 18.15 C6.2 21.77, 5.59 26.01, 3.07 34.5" stroke="#000000" stroke-width="1" fill="none"></path></g></g><mask></mask><g stroke-linecap="round"><g transform="translate(1143.1933236125142 1127.676291595965) rotate(0 1.23828125 16.913575451289717)"><path d="M-0.52 -0.02 C0 5.63, 2.2 28.64, 2.68 34.24 M0.21 -0.5 C0.72 4.96, 2.07 27.72, 2.36 33.48" stroke="#000000" stroke-width="1" fill="none"></path></g><g transform="translate(1143.1933236125142 1127.676291595965) rotate(0 1.23828125 16.913575451289717)"><path d="M-4.32 17.9 C-2.83 21.65, -0.72 24.54, 2.36 33.48 M-4.32 17.9 C-2.75 21.67, -0.74 26.14, 2.36 33.48" stroke="#000000" stroke-width="1" fill="none"></path></g><g transform="translate(1143.1933236125142 1127.676291595965) rotate(0 1.23828125 16.913575451289717)"><path d="M7.26 17.25 C6.22 21.09, 5.81 24.12, 2.36 33.48 M7.26 17.25 C5.85 21.14, 4.89 25.78, 2.36 33.48" stroke="#000000" stroke-width="1" fill="none"></path></g></g><mask></mask><g stroke-linecap="round"><g transform="translate(1345.581544222492 1118.6015713490378) rotate(0 -55.06224267452751 31.01384532240661)"><path d="M-1.03 0.98 C-19.41 11.18, -92.84 51.23, -110.96 61.36 M0.62 0.44 C-17.31 10.79, -90.19 52.14, -108.69 62.55" stroke="#000000" stroke-width="1" fill="none"></path></g><g transform="translate(1345.581544222492 1118.6015713490378) rotate(0 -55.06224267452751 31.01384532240661)"><path d="M-92.45 43.54 C-94.73 46.6, -101.4 53.18, -108.69 62.55 M-92.45 43.54 C-97.38 48.91, -101.4 53.58, -108.69 62.55" stroke="#000000" stroke-width="1" fill="none"></path></g><g transform="translate(1345.581544222492 1118.6015713490378) rotate(0 -55.06224267452751 31.01384532240661)"><path d="M-84.03 58.43 C-88.36 57.81, -97.06 60.79, -108.69 62.55 M-84.03 58.43 C-91.28 59.7, -97.63 60.27, -108.69 62.55" stroke="#000000" stroke-width="1" fill="none"></path></g></g><mask></mask><g stroke-linecap="round"><g transform="translate(1028.9316048625142 1009.3056882800037) rotate(0 17.537109375 -39.46631120150656)"><path d="M0.44 -0.88 C6.11 -14.12, 28.97 -65.4, 34.8 -78.25 M-0.79 1.27 C4.63 -11.81, 27.77 -66.5, 33.7 -80.02" stroke="#000000" stroke-width="1" fill="none"></path></g><g transform="translate(1028.9316048625142 1009.3056882800037) rotate(0 17.537109375 -39.46631120150656)"><path d="M32.28 -55.06 C31.08 -64.62, 34.21 -72.71, 33.7 -80.02 M32.28 -55.06 C32.75 -65.05, 32.93 -73.16, 33.7 -80.02" stroke="#000000" stroke-width="1" fill="none"></path></g><g transform="translate(1028.9316048625142 1009.3056882800037) rotate(0 17.537109375 -39.46631120150656)"><path d="M16.57 -61.81 C21.16 -68.97, 30.02 -74.6, 33.7 -80.02 M16.57 -61.81 C22.94 -69.38, 29.06 -74.94, 33.7 -80.02" stroke="#000000" stroke-width="1" fill="none"></path></g></g><mask></mask><g stroke-linecap="round"><g transform="translate(1021.3842559890242 1096.259541144781) rotate(0 23.302720664098842 -71.08487766272523)"><path d="M-0.41 -0.06 C7.17 -23.56, 38.01 -117.39, 45.85 -141.01 M1.58 -1.14 C9.5 -24.94, 40.78 -118.73, 48.16 -142.53" stroke="#000000" stroke-width="1" fill="none"></path></g><g transform="translate(1021.3842559890242 1096.259541144781) rotate(0 23.302720664098842 -71.08487766272523)"><path d="M49.07 -117.55 C48.66 -127.17, 50.39 -134.22, 48.16 -142.53 M49.07 -117.55 C47.96 -124.94, 48.21 -134.53, 48.16 -142.53" stroke="#000000" stroke-width="1" fill="none"></path></g><g transform="translate(1021.3842559890242 1096.259541144781) rotate(0 23.302720664098842 -71.08487766272523)"><path d="M32.8 -122.81 C37.83 -130.62, 45.01 -135.91, 48.16 -142.53 M32.8 -122.81 C37.05 -128.44, 42.69 -136.29, 48.16 -142.53" stroke="#000000" stroke-width="1" fill="none"></path></g></g><mask></mask><g stroke-linecap="round"><g transform="translate(743.777266141295 894.187775164078) rotate(0 61.36427873560956 55.33564146920554)"><path d="M-0.92 -1.04 C19.25 17.69, 101.35 93.21, 122.15 111.8 M0.8 1.03 C20.66 19.5, 100.42 91.83, 120.9 110.26" stroke="#000000" stroke-width="1" fill="none"></path></g><g transform="translate(743.777266141295 894.187775164078) rotate(0 61.36427873560956 55.33564146920554)"><path d="M97.74 100.85 C105.04 103.76, 117.74 110.33, 120.9 110.26 M97.74 100.85 C104.91 104.64, 110.06 107.2, 120.9 110.26" stroke="#000000" stroke-width="1" fill="none"></path></g><g transform="translate(743.777266141295 894.187775164078) rotate(0 61.36427873560956 55.33564146920554)"><path d="M109.21 88.16 C111.95 95.96, 120.15 107.51, 120.9 110.26 M109.21 88.16 C113.05 95.41, 114.97 101.54, 120.9 110.26" stroke="#000000" stroke-width="1" fill="none"></path></g></g><mask></mask><g stroke-linecap="round"><g transform="translate(250.08259457081067 950.308178438864) rotate(0 79.00394817843153 -36.221655575360444)"><path d="M0.55 -0.02 C26.95 -12.11, 131.62 -60.49, 157.75 -72.71 M-0.61 -1.08 C25.66 -12.97, 129.92 -59.4, 156.66 -71.31" stroke="#000000" stroke-width="1" fill="none"></path></g><g transform="translate(250.08259457081067 950.308178438864) rotate(0 79.00394817843153 -36.221655575360444)"><path d="M138.68 -53.94 C143.13 -58.76, 147.18 -63.82, 156.66 -71.31 M138.68 -53.94 C142.24 -58.01, 147.02 -61.79, 156.66 -71.31" stroke="#000000" stroke-width="1" fill="none"></path></g><g transform="translate(250.08259457081067 950.308178438864) rotate(0 79.00394817843153 -36.221655575360444)"><path d="M131.73 -69.56 C137.87 -70.54, 143.65 -71.72, 156.66 -71.31 M131.73 -69.56 C136.86 -70.13, 143.19 -70.43, 156.66 -71.31" stroke="#000000" stroke-width="1" fill="none"></path></g></g><mask></mask><g stroke-linecap="round"><g transform="translate(258.7675678484235 1155.6261641634471) rotate(0 72.43477851593718 -86.96672581527801)"><path d="M0.99 -0.07 C24.9 -29.02, 120.56 -144.66, 144.48 -173.55 M0.05 -1.16 C23.69 -30.49, 119.41 -146.42, 143.32 -175.47" stroke="#000000" stroke-width="1" fill="none"></path></g><g transform="translate(258.7675678484235 1155.6261641634471) rotate(0 72.43477851593718 -86.96672581527801)"><path d="M134.98 -151.91 C138.03 -161.67, 141.99 -170.7, 143.32 -175.47 M134.98 -151.91 C137.62 -160.26, 141.4 -168.46, 143.32 -175.47" stroke="#000000" stroke-width="1" fill="none"></path></g><g transform="translate(258.7675678484235 1155.6261641634471) rotate(0 72.43477851593718 -86.96672581527801)"><path d="M121.78 -162.78 C129.9 -168.48, 138.93 -173.35, 143.32 -175.47 M121.78 -162.78 C128.88 -167.29, 137.19 -171.75, 143.32 -175.47" stroke="#000000" stroke-width="1" fill="none"></path></g></g><mask></mask><g stroke-linecap="round" transform="translate(10 427.5139597938405) rotate(0 160.8778878823873 459.041015625)"><path d="M32 0 C87.92 -0.47, 140.37 0.06, 289.76 0 M32 0 C101.5 -0.33, 173.17 0.44, 289.76 0 M289.76 0 C312.75 -0.38, 321.57 11.6, 321.76 32 M289.76 0 C310.73 -0.45, 323.7 11.06, 321.76 32 M321.76 32 C321.3 314.72, 321.41 598.62, 321.76 886.08 M321.76 32 C318.6 263.32, 318.32 494.22, 321.76 886.08 M321.76 886.08 C323.5 906.71, 309.77 918.41, 289.76 918.08 M321.76 886.08 C322.53 909.48, 312.82 917.94, 289.76 918.08 M289.76 918.08 C196.2 916.33, 103.64 916.17, 32 918.08 M289.76 918.08 C231.08 920.02, 170.69 919.62, 32 918.08 M32 918.08 C12.19 918.75, -1.12 909.13, 0 886.08 M32 918.08 C10.07 917.74, -1.79 908.92, 0 886.08 M0 886.08 C-2.85 676.45, -2.25 466.78, 0 32 M0 886.08 C0.92 615.34, 1.18 345.28, 0 32 M0 32 C-1.29 12.35, 10.97 0.96, 32 0 M0 32 C-0.54 9.23, 9.26 1.52, 32 0" stroke="#000000" stroke-width="1" fill="none"></path></g><g stroke-linecap="round" transform="translate(381.3018712247964 422.87042183660697) rotate(0 197.75459790469654 459.041015625)"><path d="M32 0 C139.44 0.96, 247.16 0.29, 363.51 0 M32 0 C108.32 -2.48, 183.36 -2.39, 363.51 0 M363.51 0 C385.35 1.5, 393.87 11.22, 395.51 32 M363.51 0 C384.15 -1.46, 397.11 8.94, 395.51 32 M395.51 32 C398.15 318.78, 397.66 605.76, 395.51 886.08 M395.51 32 C397.63 343.12, 397.73 654.81, 395.51 886.08 M395.51 886.08 C396.95 907.18, 385.24 918.25, 363.51 918.08 M395.51 886.08 C396.93 906.4, 383.9 917.5, 363.51 918.08 M363.51 918.08 C232.29 919.14, 104.37 917.81, 32 918.08 M363.51 918.08 C254.93 918.88, 145.27 918.74, 32 918.08 M32 918.08 C10.01 917.47, -0.44 906.23, 0 886.08 M32 918.08 C12.88 920.31, 1.19 908.67, 0 886.08 M0 886.08 C-0.28 641.3, -0.12 397.79, 0 32 M0 886.08 C3.51 621.58, 3.46 357.34, 0 32 M0 32 C1.68 11.21, 11.76 -0.01, 32 0 M0 32 C-0.25 10.31, 10.32 0.57, 32 0" stroke="#000000" stroke-width="1" fill="none"></path></g><g stroke-linecap="round" transform="translate(820.2948861125141 423.2487867987759) rotate(0 211.01953125 459.041015625)"><path d="M32 0 C151.37 0.87, 269.48 0.56, 390.04 0 M32 0 C167.73 -1.07, 302.36 -1.65, 390.04 0 M390.04 0 C409.37 -0.78, 423.23 11.16, 422.04 32 M390.04 0 C413.61 -1.37, 420.54 10.36, 422.04 32 M422.04 32 C422.81 307.91, 423.19 584.63, 422.04 886.08 M422.04 32 C421.7 205.9, 421.52 379.71, 422.04 886.08 M422.04 886.08 C422.95 907.21, 411.53 918.6, 390.04 918.08 M422.04 886.08 C422.01 908.93, 410.11 918.65, 390.04 918.08 M390.04 918.08 C246.88 919.74, 105.34 919.34, 32 918.08 M390.04 918.08 C295.8 916.34, 203.1 917.36, 32 918.08 M32 918.08 C11.49 917.32, 1.31 907.46, 0 886.08 M32 918.08 C8.93 917.08, -1.19 905.76, 0 886.08 M0 886.08 C-1.3 561.93, -1.57 237.7, 0 32 M0 886.08 C-1.98 667.65, -1.97 448.92, 0 32 M0 32 C-1.69 9.97, 10.84 1.96, 32 0 M0 32 C1.47 10.59, 8.64 0.15, 32 0" stroke="#000000" stroke-width="1" fill="none"></path></g><g stroke-linecap="round" transform="translate(1270.3066048625142 418.2761305487759) rotate(0 326.6015625 459.041015625)"><path d="M32 0 C246.39 0.81, 460.21 -0.18, 621.2 0 M32 0 C193.36 0.53, 354.48 0.57, 621.2 0 M621.2 0 C642.92 -1.96, 654.93 9.78, 653.2 32 M621.2 0 C640.58 -2.11, 653.75 9.8, 653.2 32 M653.2 32 C652.19 241.81, 652.67 451.85, 653.2 886.08 M653.2 32 C655.47 348.44, 655.48 665.58, 653.2 886.08 M653.2 886.08 C651.76 906.89, 644.32 916.34, 621.2 918.08 M653.2 886.08 C654.89 906.62, 643.3 917.87, 621.2 918.08 M621.2 918.08 C428.66 918.2, 234.62 917.44, 32 918.08 M621.2 918.08 C487.01 916.18, 353.41 916.08, 32 918.08 M32 918.08 C11.99 918.94, 1.09 909.06, 0 886.08 M32 918.08 C10.52 916.87, -0.78 907.6, 0 886.08 M0 886.08 C3.51 668.18, 3.08 450.73, 0 32 M0 886.08 C1.91 707.69, 2.02 529.6, 0 32 M0 32 C1.99 11.57, 10.67 -1.94, 32 0 M0 32 C0.2 12.55, 9.25 0.35, 32 0" stroke="#000000" stroke-width="1" fill="none"></path></g><g stroke-linecap="round" transform="translate(27.533630548364613 345.83910200213205) rotate(0 144.673828125 31.26171875)"><path d="M15.63 0 C111.65 1.6, 208.27 1.08, 273.72 0 M15.63 0 C89.95 1.55, 164.26 2.17, 273.72 0 M273.72 0 C285.19 -1.8, 288.74 5.91, 289.35 15.63 M273.72 0 C286.28 -1.58, 290.57 6.01, 289.35 15.63 M289.35 15.63 C290.49 21.52, 288.24 28.51, 289.35 46.89 M289.35 15.63 C290.03 25.78, 289.61 35.58, 289.35 46.89 M289.35 46.89 C287.78 59.02, 284.72 63.15, 273.72 62.52 M289.35 46.89 C289.85 57.21, 285.08 63.5, 273.72 62.52 M273.72 62.52 C179.9 63.1, 83.34 63.94, 15.63 62.52 M273.72 62.52 C214.12 62.9, 155.96 63.21, 15.63 62.52 M15.63 62.52 C6.69 64.1, 1.65 56.67, 0 46.89 M15.63 62.52 C7.01 62.75, -2 58.52, 0 46.89 M0 46.89 C1.79 40.02, -0.92 30.09, 0 15.63 M0 46.89 C-0.57 35.98, 0.47 27.36, 0 15.63 M0 15.63 C-0.4 4.89, 5.27 0.75, 15.63 0 M0 15.63 C0.16 6.41, 6.34 -2.03, 15.63 0" stroke="#000000" stroke-width="1" fill="none"></path></g><g transform="translate(115.59148424709508 359.60082075213205) rotate(0 56.61597442626953 17.5)"><text x="56.61597442626953" y="0" font-family="Virgil, Segoe UI Emoji" font-size="28px" fill="#000000" text-anchor="middle" style="white-space: pre;" direction="ltr" dominant-baseline="text-before-edge">SOURCE</text></g><g stroke-linecap="round" transform="translate(395.54879236251406 342.1761549628384) rotate(0 144.673828125 31.26171875)"><path d="M15.63 0 C99.47 -0.06, 186.6 -0.7, 273.72 0 M15.63 0 C94.96 1.19, 175.92 2.21, 273.72 0 M273.72 0 C283.21 1.08, 291.24 5.23, 289.35 15.63 M273.72 0 C285.57 0.15, 289.3 4.45, 289.35 15.63 M289.35 15.63 C290.64 22.19, 288.26 27.29, 289.35 46.89 M289.35 15.63 C288.37 21.84, 289.63 30.89, 289.35 46.89 M289.35 46.89 C288.48 58.38, 282.37 61.13, 273.72 62.52 M289.35 46.89 C288.2 55.56, 284.01 62.3, 273.72 62.52 M273.72 62.52 C193.61 61.22, 112.09 60.12, 15.63 62.52 M273.72 62.52 C208.32 63.24, 143.31 63.29, 15.63 62.52 M15.63 62.52 C7 63.65, -1.61 57.91, 0 46.89 M15.63 62.52 C6.84 62.77, 1.03 56.59, 0 46.89 M0 46.89 C-1.62 33.43, 1.97 21.99, 0 15.63 M0 46.89 C-0.43 35.58, 0.07 23.35, 0 15.63 M0 15.63 C1.63 4.45, 4.62 1.61, 15.63 0 M0 15.63 C1.51 3.24, 3.91 2.29, 15.63 0" stroke="#000000" stroke-width="1" fill="none"></path></g><g transform="translate(483.3266396525531 355.9378737128384) rotate(0 56.89598083496094 17.5)"><text x="56.89598083496094" y="0" font-family="Virgil, Segoe UI Emoji" font-size="28px" fill="#000000" text-anchor="middle" style="white-space: pre;" direction="ltr" dominant-baseline="text-before-edge">INGEST</text></g><g stroke-linecap="round" transform="translate(872.9081673625141 342.9066237128384) rotate(0 144.673828125 31.26171875)"><path d="M15.63 0 C100.09 0.59, 186.04 1.6, 273.72 0 M15.63 0 C105.69 0.01, 194.96 -0.59, 273.72 0 M273.72 0 C283 -0.59, 289.1 7.19, 289.35 15.63 M273.72 0 C286.36 1.54, 291.18 3.92, 289.35 15.63 M289.35 15.63 C288.98 24.44, 288.78 37.27, 289.35 46.89 M289.35 15.63 C288.27 25.7, 289.06 33.44, 289.35 46.89 M289.35 46.89 C288.63 58.71, 285.33 64.31, 273.72 62.52 M289.35 46.89 C287.41 58.39, 285.54 61.07, 273.72 62.52 M273.72 62.52 C173.56 59.9, 75.9 61.08, 15.63 62.52 M273.72 62.52 C221.15 63.99, 167.19 64.44, 15.63 62.52 M15.63 62.52 C4.81 61.5, -0.31 55.76, 0 46.89 M15.63 62.52 C3.81 63.78, 2.04 57.65, 0 46.89 M0 46.89 C1.28 35.6, 1.53 24.77, 0 15.63 M0 46.89 C0.8 37.36, -0.23 26.33, 0 15.63 M0 15.63 C1.38 4.99, 5.2 0.51, 15.63 0 M0 15.63 C0.69 3.93, 5.62 -1.26, 15.63 0" stroke="#000000" stroke-width="1" fill="none"></path></g><g transform="translate(965.2780098918109 356.6683424628384) rotate(0 52.303985595703125 17.5)"><text x="52.303985595703125" y="0" font-family="Virgil, Segoe UI Emoji" font-size="28px" fill="#000000" text-anchor="middle" style="white-space: pre;" direction="ltr" dominant-baseline="text-before-edge">ENRICH</text></g><g stroke-linecap="round" transform="translate(1388.6347298625142 344.9378737128384) rotate(0 144.673828125 31.26171875)"><path d="M15.63 0 C89.28 1.99, 165.3 1.16, 273.72 0 M15.63 0 C97.97 2.69, 178.5 1.85, 273.72 0 M273.72 0 C284.67 -0.69, 288.26 6.41, 289.35 15.63 M273.72 0 C282.91 1.77, 288.59 3.07, 289.35 15.63 M289.35 15.63 C291.32 26.66, 290.46 41.91, 289.35 46.89 M289.35 15.63 C289.15 27.13, 289.91 38.45, 289.35 46.89 M289.35 46.89 C289.64 57.24, 283.99 63.94, 273.72 62.52 M289.35 46.89 C290.11 56.42, 284.76 61.08, 273.72 62.52 M273.72 62.52 C178.49 61.1, 81.74 62.52, 15.63 62.52 M273.72 62.52 C181.35 64.24, 88.11 64.42, 15.63 62.52 M15.63 62.52 C5.44 61.11, -1.7 57.03, 0 46.89 M15.63 62.52 C3.48 62.51, 0.89 55.37, 0 46.89 M0 46.89 C-0.94 34.76, -0.03 28.14, 0 15.63 M0 46.89 C0.33 36.51, 1.09 25.9, 0 15.63 M0 15.63 C-1.49 4.44, 6.12 -1.05, 15.63 0 M0 15.63 C-0.84 6.23, 6.1 1.61, 15.63 0" stroke="#000000" stroke-width="1" fill="none"></path></g><g transform="translate(1469.7205758097798 358.6995924628384) rotate(0 63.587982177734375 17.5)"><text x="63.587982177734375" y="0" font-family="Virgil, Segoe UI Emoji" font-size="28px" fill="#000000" text-anchor="middle" style="white-space: pre;" direction="ltr" dominant-baseline="text-before-edge">ANALYZE</text></g><g stroke-linecap="round" transform="translate(999.7062630656391 519.2535475409634) rotate(0 60.91015625 31.466796875)"><path d="M15.73 0 C43.7 -0.51, 73.42 -1.84, 106.09 0 M15.73 0 C35.77 1.19, 55.48 0.24, 106.09 0 M106.09 0 C117.65 -1.75, 121.46 6.75, 121.82 15.73 M106.09 0 C116.25 1.59, 119.96 7.22, 121.82 15.73 M121.82 15.73 C121.95 27.52, 121.23 37.6, 121.82 47.2 M121.82 15.73 C121.88 22.91, 122.53 29.62, 121.82 47.2 M121.82 47.2 C120.86 58.93, 117.12 63.74, 106.09 62.93 M121.82 47.2 C121.47 59, 116.1 64.87, 106.09 62.93 M106.09 62.93 C85.96 62.58, 67.04 62.21, 15.73 62.93 M106.09 62.93 C75.81 63.29, 44.05 63.42, 15.73 62.93 M15.73 62.93 C3.73 63.12, 1.68 55.97, 0 47.2 M15.73 62.93 C3.21 63.97, -1.91 56.61, 0 47.2 M0 47.2 C-0.37 37.43, 1.45 27.08, 0 15.73 M0 47.2 C-0.47 40.64, -0.4 31.82, 0 15.73 M0 15.73 C-1.54 5.89, 3.27 1.96, 15.73 0 M0 15.73 C-0.05 5.8, 5.92 0.87, 15.73 0" stroke="#000000" stroke-width="1" fill="none"></path></g><g transform="translate(1017.8184456828266 533.2203444159634) rotate(0 42.7979736328125 17.5)"><text x="42.7979736328125" y="0" font-family="Virgil, Segoe UI Emoji" font-size="28px" fill="#000000" text-anchor="middle" style="white-space: pre;" direction="ltr" dominant-baseline="text-before-edge">worker</text></g><g stroke-linecap="round" transform="translate(880.0968880656391 924.7222975409634) rotate(0 60.91015625 31.466796875)"><path d="M15.73 0 C50.07 0.74, 83.15 -2.09, 106.09 0 M15.73 0 C46.69 0.13, 75.33 -1.02, 106.09 0 M106.09 0 C115.56 1.38, 122.89 6.96, 121.82 15.73 M106.09 0 C114.62 -0.34, 120.98 4.11, 121.82 15.73 M121.82 15.73 C123.25 24.76, 122.73 32.56, 121.82 47.2 M121.82 15.73 C122.74 24.63, 122.39 33.19, 121.82 47.2 M121.82 47.2 C120.77 57.12, 116.47 61.82, 106.09 62.93 M121.82 47.2 C123.67 57.4, 114.81 64.73, 106.09 62.93 M106.09 62.93 C83.21 63.11, 60.35 63.07, 15.73 62.93 M106.09 62.93 C72.98 63.51, 39.59 63.78, 15.73 62.93 M15.73 62.93 C6.3 63.45, -1.58 56.55, 0 47.2 M15.73 62.93 C4.14 63.76, 0.15 59.4, 0 47.2 M0 47.2 C-1.75 41.84, -1.65 34.58, 0 15.73 M0 47.2 C0.09 40.5, 0.68 33.66, 0 15.73 M0 15.73 C0.27 3.65, 6.59 0.09, 15.73 0 M0 15.73 C-1.52 4.22, 4.53 0.7, 15.73 0" stroke="#000000" stroke-width="1" fill="none"></path></g><g transform="translate(898.2090706828266 938.6890944159634) rotate(0 42.7979736328125 17.5)"><text x="42.7979736328125" y="0" font-family="Virgil, Segoe UI Emoji" font-size="28px" fill="#000000" text-anchor="middle" style="white-space: pre;" direction="ltr" dominant-baseline="text-before-edge">worker</text></g><g stroke-linecap="round" transform="translate(1421.4484505656392 495.0426100409634) rotate(0 97.2734375 123.12890624999999)"><path d="M32 0 C61.03 1.7, 91.05 0.53, 162.55 0 M32 0 C61.3 1.59, 88.49 0.49, 162.55 0 M162.55 0 C183.51 -1.91, 192.82 9.69, 194.55 32 M162.55 0 C181.69 0.71, 196.8 11.47, 194.55 32 M194.55 32 C196.19 96.55, 197.05 157.62, 194.55 214.26 M194.55 32 C195.72 88.63, 195.54 144.41, 194.55 214.26 M194.55 214.26 C195.7 236.97, 184.21 246.88, 162.55 246.26 M194.55 214.26 C192.25 234.23, 182.75 244.67, 162.55 246.26 M162.55 246.26 C119.72 245.12, 79.29 247.31, 32 246.26 M162.55 246.26 C118.94 245.85, 76.1 245.92, 32 246.26 M32 246.26 C12.27 244.42, -0.9 234.51, 0 214.26 M32 246.26 C8.52 247.94, 1.76 235.97, 0 214.26 M0 214.26 C1.19 142.5, 2.56 68.12, 0 32 M0 214.26 C1.95 147.92, 0.19 80.78, 0 32 M0 32 C-1.43 8.87, 12.65 -0.03, 32 0 M0 32 C1.23 8.99, 8.96 1.65, 32 0" stroke="#000000" stroke-width="1" fill="none"></path></g><g transform="translate(1441.609926700893 583.1715162909634) rotate(0 77.1119613647461 34.99999999999999)"><text x="77.1119613647461" y="0" font-family="Virgil, Segoe UI Emoji" font-size="28px" fill="#000000" text-anchor="middle" style="white-space: pre;" direction="ltr" dominant-baseline="text-before-edge">Time-Series</text><text x="77.1119613647461" y="35" font-family="Virgil, Segoe UI Emoji" font-size="28px" fill="#000000" text-anchor="middle" style="white-space: pre;" direction="ltr" dominant-baseline="text-before-edge">DB</text></g><g stroke-linecap="round" transform="translate(1710.3468880656392 470.0738600409634) rotate(0 97.2734375 123.12890624999999)"><path d="M32 0 C63.01 -2.32, 98.41 0.32, 162.55 0 M32 0 C82.51 -0.05, 134.25 -1.18, 162.55 0 M162.55 0 C183.33 0.56, 193.77 9.87, 194.55 32 M162.55 0 C181.79 -1.83, 196.07 11.79, 194.55 32 M194.55 32 C194.5 102.28, 192.95 169.63, 194.55 214.26 M194.55 32 C193.86 86.05, 195.19 137.54, 194.55 214.26 M194.55 214.26 C195.92 234.53, 183.74 244.78, 162.55 246.26 M194.55 214.26 C195.18 237.44, 183.53 244.65, 162.55 246.26 M162.55 246.26 C116.36 243.94, 68.12 245.51, 32 246.26 M162.55 246.26 C123.83 246.31, 86.36 244.91, 32 246.26 M32 246.26 C9.22 248.16, 1.1 235.77, 0 214.26 M32 246.26 C11.1 245.91, -0.2 237.33, 0 214.26 M0 214.26 C0.6 155.66, 0.25 95.16, 0 32 M0 214.26 C0.88 155.19, 0.87 95.52, 0 32 M0 32 C0.12 9.75, 11.82 -1.17, 32 0 M0 32 C-2 10.7, 10.67 -0.66, 32 0" stroke="#000000" stroke-width="1" fill="none"></path></g><g transform="translate(1752.3623452189595 575.7027662909634) rotate(0 55.25798034667969 17.5)"><text x="55.25798034667969" y="0" font-family="Virgil, Segoe UI Emoji" font-size="28px" fill="#000000" text-anchor="middle" style="white-space: pre;" direction="ltr" dominant-baseline="text-before-edge">BI Tool</text></g><g stroke-linecap="round" transform="translate(1712.078317223361 741.1878320413211) rotate(0 97.2734375 123.12890625)"><path d="M32 0 C69.42 -0.84, 106.84 0.76, 162.55 0 M32 0 C68.08 0.89, 103.24 0.11, 162.55 0 M162.55 0 C185.53 0.49, 193.52 11.4, 194.55 32 M162.55 0 C183.54 -0.33, 192.34 10.97, 194.55 32 M194.55 32 C195.64 77.61, 194.37 121.39, 194.55 214.26 M194.55 32 C194.33 80.96, 194.15 130.65, 194.55 214.26 M194.55 214.26 C195.6 237.54, 183.39 246.82, 162.55 246.26 M194.55 214.26 C193.08 236.61, 183.69 244.54, 162.55 246.26 M162.55 246.26 C111.85 244.36, 61.62 246.78, 32 246.26 M162.55 246.26 C110.44 246.24, 59.84 246.48, 32 246.26 M32 246.26 C12.31 246.08, 1.55 235.74, 0 214.26 M32 246.26 C11.56 247.58, 0.5 234.58, 0 214.26 M0 214.26 C0.85 154.23, 0.13 95.78, 0 32 M0 214.26 C-1.98 160.78, -1.95 108.88, 0 32 M0 32 C1.13 11.24, 11.29 0.52, 32 0 M0 32 C1.05 12.31, 8.52 -2.04, 32 0" stroke="#000000" stroke-width="1" fill="none"></path></g><g transform="translate(1725.26778560715 829.3167382913211) rotate(0 84.08396911621094 35)"><text x="84.08396911621094" y="0" font-family="Virgil, Segoe UI Emoji" font-size="28px" fill="#000000" text-anchor="middle" style="white-space: pre;" direction="ltr" dominant-baseline="text-before-edge">Datascience</text><text x="84.08396911621094" y="35" font-family="Virgil, Segoe UI Emoji" font-size="28px" fill="#000000" text-anchor="middle" style="white-space: pre;" direction="ltr" dominant-baseline="text-before-edge">Workspace</text></g><g stroke-linecap="round" transform="translate(1714.8383458465041 1008.5267216317577) rotate(0 97.2734375 123.12890625)"><path d="M32 0 C78.14 0.43, 118.97 -0.91, 162.55 0 M32 0 C65.71 0.71, 97.15 0.05, 162.55 0 M162.55 0 C182.3 1.35, 194.61 11.69, 194.55 32 M162.55 0 C185.19 -0.97, 194.25 8.4, 194.55 32 M194.55 32 C195.13 103.89, 195.18 175.63, 194.55 214.26 M194.55 32 C193.82 68.23, 193.87 105.99, 194.55 214.26 M194.55 214.26 C196.53 235.19, 183.08 245.71, 162.55 246.26 M194.55 214.26 C196.65 235.46, 183.11 245.58, 162.55 246.26 M162.55 246.26 C122.76 244.65, 78.97 244.63, 32 246.26 M162.55 246.26 C134.32 245.77, 105.97 245.17, 32 246.26 M32 246.26 C12.35 246.65, 1.01 234.4, 0 214.26 M32 246.26 C8.84 244.43, -0.2 237.8, 0 214.26 M0 214.26 C-2.44 163.69, -1.27 112.12, 0 32 M0 214.26 C-1.63 176.31, -1.58 139.69, 0 32 M0 32 C1.99 11.86, 10.92 -1.37, 32 0 M0 32 C1.94 12.6, 10.37 -0.91, 32 0" stroke="#000000" stroke-width="1" fill="none"></path></g><g transform="translate(1745.6678136199416 1079.1556278817577) rotate(0 66.4439697265625 52.5)"><text x="66.4439697265625" y="0" font-family="Virgil, Segoe UI Emoji" font-size="28px" fill="#000000" text-anchor="middle" style="white-space: pre;" direction="ltr" dominant-baseline="text-before-edge">ML &amp; </text><text x="66.4439697265625" y="35" font-family="Virgil, Segoe UI Emoji" font-size="28px" fill="#000000" text-anchor="middle" style="white-space: pre;" direction="ltr" dominant-baseline="text-before-edge">Anomaly </text><text x="66.4439697265625" y="70" font-family="Virgil, Segoe UI Emoji" font-size="28px" fill="#000000" text-anchor="middle" style="white-space: pre;" direction="ltr" dominant-baseline="text-before-edge">Detection</text></g><g stroke-linecap="round" transform="translate(1360.8586068156392 905.7691725409634) rotate(0 139.08203125 123.12890625)"><path d="M32 0 C114.22 0.14, 198.25 0.59, 246.16 0 M32 0 C97.02 -2.1, 162.07 -1.16, 246.16 0 M246.16 0 C265.96 -0.3, 278.49 11.92, 278.16 32 M246.16 0 C265.59 1.94, 278.16 10.87, 278.16 32 M278.16 32 C279.33 96.49, 277.6 160.66, 278.16 214.26 M278.16 32 C278.18 91.96, 278.27 152.96, 278.16 214.26 M278.16 214.26 C276.54 233.73, 267.42 248.17, 246.16 246.26 M278.16 214.26 C280.25 237.85, 269.27 244.35, 246.16 246.26 M246.16 246.26 C175.63 243.22, 102.33 244.16, 32 246.26 M246.16 246.26 C169.9 245.56, 92.42 244.75, 32 246.26 M32 246.26 C8.75 247.13, 0.73 236.03, 0 214.26 M32 246.26 C12.58 244.24, 0.34 233.53, 0 214.26 M0 214.26 C-1.73 141.45, -1.52 70.06, 0 32 M0 214.26 C-0.29 147.19, -0.93 79.57, 0 32 M0 32 C-0.92 10.46, 8.73 1.01, 32 0 M0 32 C0.37 9.09, 12.01 1.75, 32 0" stroke="#000000" stroke-width="1" fill="none"></path></g><g transform="translate(1384.0906777384907 1011.3980787909634) rotate(0 115.84996032714844 17.5)"><text x="115.84996032714844" y="0" font-family="Virgil, Segoe UI Emoji" font-size="28px" fill="#000000" text-anchor="middle" style="white-space: pre;" direction="ltr" dominant-baseline="text-before-edge">Data Warehouse</text></g><g stroke-linecap="round" transform="translate(1061.9132943156392 850.9176100409634) rotate(0 76.640625 49.1328125)"><path d="M24.57 0 C52.59 1.59, 80.45 0.69, 128.71 0 M24.57 0 C59.25 -0.43, 95.05 -0.33, 128.71 0 M128.71 0 C143.87 1.17, 154.53 10.1, 153.28 24.57 M128.71 0 C145.1 0.61, 154.19 7.74, 153.28 24.57 M153.28 24.57 C153.1 40.74, 155.55 58.68, 153.28 73.7 M153.28 24.57 C152.59 41.9, 152.37 60.92, 153.28 73.7 M153.28 73.7 C152.66 90.44, 147.05 97.75, 128.71 98.27 M153.28 73.7 C152.52 88.69, 145.49 100.13, 128.71 98.27 M128.71 98.27 C101.4 96.43, 76.9 97.11, 24.57 98.27 M128.71 98.27 C107.73 99.28, 84.49 99.4, 24.57 98.27 M24.57 98.27 C8.58 98, -1.34 89.13, 0 73.7 M24.57 98.27 C10.15 96.75, -0.74 89.85, 0 73.7 M0 73.7 C-0.91 63.64, -1.86 50.07, 0 24.57 M0 73.7 C0.07 54.11, -0.47 37.27, 0 24.57 M0 24.57 C-1.75 7.87, 6.41 1.68, 24.57 0 M0 24.57 C-0.37 7.8, 9.79 -0.35, 24.57 0" stroke="#000000" stroke-width="1" fill="none"></path></g><g transform="translate(1099.8339562419087 875.0504225409634) rotate(0 38.71996307373047 25)"><text x="38.71996307373047" y="0" font-family="Virgil, Segoe UI Emoji" font-size="20px" fill="#000000" text-anchor="middle" style="white-space: pre;" direction="ltr" dominant-baseline="text-before-edge">Raw</text><text x="38.71996307373047" y="25" font-family="Virgil, Segoe UI Emoji" font-size="20px" fill="#000000" text-anchor="middle" style="white-space: pre;" direction="ltr" dominant-baseline="text-before-edge">Storage</text></g><g stroke-linecap="round" transform="translate(1068.5070443156392 1168.8043287909634) rotate(0 76.640625 42.58984375)"><path d="M21.29 0 C52.2 0.15, 78.62 -2.1, 131.99 0 M21.29 0 C51.75 1.22, 80.09 0.86, 131.99 0 M131.99 0 C145.21 -1.72, 154.67 7.13, 153.28 21.29 M131.99 0 C144.02 -1.03, 152.24 8.47, 153.28 21.29 M153.28 21.29 C153.82 33.16, 153.47 46.77, 153.28 63.88 M153.28 21.29 C153.53 35.95, 152.96 50.12, 153.28 63.88 M153.28 63.88 C154.66 76.46, 147.59 85.66, 131.99 85.18 M153.28 63.88 C151.39 79.43, 143.91 87.36, 131.99 85.18 M131.99 85.18 C106.32 85.32, 79.33 84.15, 21.29 85.18 M131.99 85.18 C94.72 84.39, 57.51 83.52, 21.29 85.18 M21.29 85.18 C5.81 86.44, 1.11 79.24, 0 63.88 M21.29 85.18 C6.21 87.36, -0.21 78.78, 0 63.88 M0 63.88 C-0.67 51.1, 1.42 41.56, 0 21.29 M0 63.88 C0.62 54.62, -0.55 46.49, 0 21.29 M0 21.29 C-1.79 6.51, 5.65 0.11, 21.29 0 M0 21.29 C-0.83 5.04, 6.18 0.57, 21.29 0" stroke="#000000" stroke-width="1" fill="none"></path></g><g transform="translate(1106.127703190151 1186.3941725409634) rotate(0 39.01996612548828 25)"><text x="39.01996612548828" y="0" font-family="Virgil, Segoe UI Emoji" font-size="20px" fill="#000000" text-anchor="middle" style="white-space: pre;" direction="ltr" dominant-baseline="text-before-edge">Enriched</text><text x="39.01996612548828" y="25" font-family="Virgil, Segoe UI Emoji" font-size="20px" fill="#000000" text-anchor="middle" style="white-space: pre;" direction="ltr" dominant-baseline="text-before-edge">Storage</text></g><g stroke-linecap="round" transform="translate(1067.6164193156392 1000.7038227479668) rotate(0 68.38111674894287 64.90376864649832)"><path d="M32 0 C46.41 0.92, 62.49 0.1, 104.76 0 M32 0 C59.26 -0.58, 86.33 -0.2, 104.76 0 M104.76 0 C127.16 1.01, 135.01 8.85, 136.76 32 M104.76 0 C126.89 -0.31, 135.99 12.58, 136.76 32 M136.76 32 C135.28 57.38, 136.57 81.16, 136.76 97.81 M136.76 32 C135.88 49.02, 136.56 65.95, 136.76 97.81 M136.76 97.81 C137.99 120.46, 127.18 130.09, 104.76 129.81 M136.76 97.81 C137.76 119.79, 126.49 129.78, 104.76 129.81 M104.76 129.81 C78.74 129.09, 56.28 129.61, 32 129.81 M104.76 129.81 C79.63 129.45, 56.37 129.87, 32 129.81 M32 129.81 C10.16 128.95, 1.37 120.44, 0 97.81 M32 129.81 C8.78 129.12, -2.15 118.03, 0 97.81 M0 97.81 C1.53 74.67, 1.65 53.52, 0 32 M0 97.81 C-0.55 82.29, -0.12 65.59, 0 32 M0 32 C-0.97 9.2, 9.18 0.44, 32 0 M0 32 C0.6 12.87, 12.62 0.28, 32 0" stroke="#000000" stroke-width="1" fill="none"></path></g><g stroke-linecap="round" transform="translate(1073.7994983177532 992.819585627522) rotate(0 68.38111674894287 64.90376864649829)"><path d="M32 0 C51.06 1.03, 67.61 -1.58, 104.76 0 M32 0 C48.21 0.24, 65.41 0.13, 104.76 0 M104.76 0 C124.78 -1.2, 135.41 10.88, 136.76 32 M104.76 0 C126.18 0.8, 136.55 12.91, 136.76 32 M136.76 32 C136.14 55.51, 136.7 84.24, 136.76 97.81 M136.76 32 C136.96 46.13, 137.91 60.77, 136.76 97.81 M136.76 97.81 C136.81 119.24, 126.07 130.96, 104.76 129.81 M136.76 97.81 C137.14 121.18, 127.31 128.94, 104.76 129.81 M104.76 129.81 C88.25 129.81, 75.16 130.92, 32 129.81 M104.76 129.81 C89.51 128.82, 73.88 129.21, 32 129.81 M32 129.81 C12.35 130.09, 0.01 121.04, 0 97.81 M32 129.81 C9.54 130.41, 0.91 117.95, 0 97.81 M0 97.81 C1.19 83.83, -1.27 66.96, 0 32 M0 97.81 C-1.04 74.84, -0.38 52.52, 0 32 M0 32 C-1.87 11.59, 12.47 -1.08, 32 0 M0 32 C-0.72 10.25, 10.84 -0.8, 32 0" stroke="#000000" stroke-width="1" fill="none"></path></g><g transform="translate(1092.5106703035126 1032.7233542740203) rotate(0 49.669944763183594 25)"><text x="49.669944763183594" y="0" font-family="Virgil, Segoe UI Emoji" font-size="20px" fill="#000000" text-anchor="middle" style="white-space: pre;" direction="ltr" dominant-baseline="text-before-edge">Batch </text><text x="49.669944763183594" y="25" font-family="Virgil, Segoe UI Emoji" font-size="20px" fill="#000000" text-anchor="middle" style="white-space: pre;" direction="ltr" dominant-baseline="text-before-edge">Processing</text></g><g stroke-linecap="round" transform="translate(1000.7101693156391 594.3629225409634) rotate(0 60.91015625 31.466796875)"><path d="M15.73 0 C49.15 -1.22, 80.81 -0.29, 106.09 0 M15.73 0 C34.74 0.33, 53.53 0.66, 106.09 0 M106.09 0 C116.05 -0.74, 120.69 3.78, 121.82 15.73 M106.09 0 C118.48 0.34, 122.24 7.06, 121.82 15.73 M121.82 15.73 C120.04 25.2, 120.69 36.35, 121.82 47.2 M121.82 15.73 C122.07 22.98, 121.95 30.66, 121.82 47.2 M121.82 47.2 C121.38 57.74, 117.03 64.85, 106.09 62.93 M121.82 47.2 C122.04 58.4, 115.65 64.09, 106.09 62.93 M106.09 62.93 C83.73 63.78, 64.04 62.36, 15.73 62.93 M106.09 62.93 C85.77 62.74, 66.05 62.71, 15.73 62.93 M15.73 62.93 C6.32 64.81, 1.82 57.81, 0 47.2 M15.73 62.93 C6.47 61.31, 0.24 59.76, 0 47.2 M0 47.2 C-0.55 41.86, -1.39 31.43, 0 15.73 M0 47.2 C1.14 36.17, 0.96 25.77, 0 15.73 M0 15.73 C1.08 6.58, 4.1 -0.66, 15.73 0 M0 15.73 C0.8 4.4, 5.26 -0.84, 15.73 0" stroke="#000000" stroke-width="1" fill="none"></path></g><g transform="translate(1018.8223519328266 608.3297194159634) rotate(0 42.7979736328125 17.5)"><text x="42.7979736328125" y="0" font-family="Virgil, Segoe UI Emoji" font-size="28px" fill="#000000" text-anchor="middle" style="white-space: pre;" direction="ltr" dominant-baseline="text-before-edge">worker</text></g><g stroke-linecap="round" transform="translate(881.2062630656391 999.8316725409634) rotate(0 60.91015625 31.466796875)"><path d="M15.73 0 C43.33 -2.34, 73.62 -1.59, 106.09 0 M15.73 0 C49.79 -1.07, 84.41 -0.11, 106.09 0 M106.09 0 C117.65 1.72, 120.12 4.95, 121.82 15.73 M106.09 0 C115.73 -1.13, 121.42 6.65, 121.82 15.73 M121.82 15.73 C122.73 23.86, 121.55 33.99, 121.82 47.2 M121.82 15.73 C122.66 27.13, 121.58 38.17, 121.82 47.2 M121.82 47.2 C121.71 56.58, 118.18 62.68, 106.09 62.93 M121.82 47.2 C120.06 59.48, 115.57 64.77, 106.09 62.93 M106.09 62.93 C88.4 64.44, 71.07 62.64, 15.73 62.93 M106.09 62.93 C73.29 63.07, 39.42 63.13, 15.73 62.93 M15.73 62.93 C3.67 61.79, -0.96 58.41, 0 47.2 M15.73 62.93 C5.39 64.64, -1.91 57.74, 0 47.2 M0 47.2 C-1.36 39.79, -1.29 30.47, 0 15.73 M0 47.2 C0.67 35.32, 0.1 21.83, 0 15.73 M0 15.73 C1.34 5.33, 3.92 -0.89, 15.73 0 M0 15.73 C-0.72 5.95, 6.63 1.2, 15.73 0" stroke="#000000" stroke-width="1" fill="none"></path></g><g transform="translate(899.3184456828266 1013.7984694159634) rotate(0 42.7979736328125 17.5)"><text x="42.7979736328125" y="0" font-family="Virgil, Segoe UI Emoji" font-size="28px" fill="#000000" text-anchor="middle" style="white-space: pre;" direction="ltr" dominant-baseline="text-before-edge">worker</text></g><g stroke-linecap="round" transform="translate(1001.3312630656391 670.8863600409634) rotate(0 60.91015625 31.466796875)"><path d="M15.73 0 C41.77 -1.11, 68.67 -0.28, 106.09 0 M15.73 0 C37.17 1.22, 59.25 0.63, 106.09 0 M106.09 0 C114.87 0.5, 121.43 4.57, 121.82 15.73 M106.09 0 C114.98 -1.9, 121.21 5.71, 121.82 15.73 M121.82 15.73 C120.54 23.64, 122.19 34.4, 121.82 47.2 M121.82 15.73 C122.45 27.07, 121.93 36.71, 121.82 47.2 M121.82 47.2 C120.23 58.13, 115.42 63.72, 106.09 62.93 M121.82 47.2 C123.2 56.97, 116.71 64.36, 106.09 62.93 M106.09 62.93 C76.09 63.37, 46.01 60.75, 15.73 62.93 M106.09 62.93 C74.79 64.02, 44.62 64.4, 15.73 62.93 M15.73 62.93 C5.47 64.89, 1.8 55.78, 0 47.2 M15.73 62.93 C5.18 63.32, -1.35 59.82, 0 47.2 M0 47.2 C1.34 37.03, 1.39 26.46, 0 15.73 M0 47.2 C-0.1 40.5, 0.02 34.34, 0 15.73 M0 15.73 C-0.39 6.8, 6.49 0.27, 15.73 0 M0 15.73 C0.22 3.06, 4.31 0.3, 15.73 0" stroke="#000000" stroke-width="1" fill="none"></path></g><g transform="translate(1019.4434456828266 684.8531569159634) rotate(0 42.7979736328125 17.5)"><text x="42.7979736328125" y="0" font-family="Virgil, Segoe UI Emoji" font-size="28px" fill="#000000" text-anchor="middle" style="white-space: pre;" direction="ltr" dominant-baseline="text-before-edge">worker</text></g><g stroke-linecap="round" transform="translate(881.8273568156391 1076.3551100409634) rotate(0 60.91015625 31.466796875)"><path d="M15.73 0 C47.52 -0.31, 79.65 2.67, 106.09 0 M15.73 0 C50.31 0.93, 86.44 1.1, 106.09 0 M106.09 0 C114.88 -0.3, 121.09 4.26, 121.82 15.73 M106.09 0 C116.17 1.41, 121.55 6.67, 121.82 15.73 M121.82 15.73 C121.47 25.5, 123.15 36.87, 121.82 47.2 M121.82 15.73 C121.47 25.46, 121.94 35.19, 121.82 47.2 M121.82 47.2 C123.43 57.43, 115.04 64.49, 106.09 62.93 M121.82 47.2 C120.81 59.52, 114.32 63.23, 106.09 62.93 M106.09 62.93 C75.61 62.62, 43.67 64.47, 15.73 62.93 M106.09 62.93 C80.14 63.38, 52.34 62.54, 15.73 62.93 M15.73 62.93 C4.29 63.65, 0.13 59.17, 0 47.2 M15.73 62.93 C3.34 62.99, -0.72 55.69, 0 47.2 M0 47.2 C-1.31 35.62, 2.07 23.91, 0 15.73 M0 47.2 C-0.09 36.11, 0.45 26.66, 0 15.73 M0 15.73 C-1.33 4.36, 4.62 0.61, 15.73 0 M0 15.73 C1.39 6.45, 5.39 1.9, 15.73 0" stroke="#000000" stroke-width="1" fill="none"></path></g><g transform="translate(899.9395394328266 1090.3219069159634) rotate(0 42.7979736328125 17.5)"><text x="42.7979736328125" y="0" font-family="Virgil, Segoe UI Emoji" font-size="28px" fill="#000000" text-anchor="middle" style="white-space: pre;" direction="ltr" dominant-baseline="text-before-edge">worker</text></g><g transform="translate(1069.3322725183216 175.6415086930793) rotate(0 252.95187377929688 70)"><text x="0" y="0" font-family="Virgil, Segoe UI Emoji" font-size="16px" fill="#000000" text-anchor="start" style="white-space: pre;" direction="ltr" dominant-baseline="text-before-edge">Some Other Considerations</text><text x="0" y="20" font-family="Virgil, Segoe UI Emoji" font-size="16px" fill="#000000" text-anchor="start" style="white-space: pre;" direction="ltr" dominant-baseline="text-before-edge">- Sharding how this implemented in the Database</text><text x="0" y="40" font-family="Virgil, Segoe UI Emoji" font-size="16px" fill="#000000" text-anchor="start" style="white-space: pre;" direction="ltr" dominant-baseline="text-before-edge">- TTL for data given cost of persisting PB of data</text><text x="0" y="60" font-family="Virgil, Segoe UI Emoji" font-size="16px" fill="#000000" text-anchor="start" style="white-space: pre;" direction="ltr" dominant-baseline="text-before-edge">- Back of napkin math to calculate how many nodes are needed</text><text x="0" y="80" font-family="Virgil, Segoe UI Emoji" font-size="16px" fill="#000000" text-anchor="start" style="white-space: pre;" direction="ltr" dominant-baseline="text-before-edge">- Optimizing network traffic</text><text x="0" y="100" font-family="Virgil, Segoe UI Emoji" font-size="16px" fill="#000000" text-anchor="start" style="white-space: pre;" direction="ltr" dominant-baseline="text-before-edge">- Data replication and fault tolerance</text><text x="0" y="120" font-family="Virgil, Segoe UI Emoji" font-size="16px" fill="#000000" text-anchor="start" style="white-space: pre;" direction="ltr" dominant-baseline="text-before-edge">- Explore existing solutions</text></g><g transform="translate(37.232204808015695 175.167077143957) rotate(0 299.0067443847656 79.02535911766613)"><text x="0" y="0" font-family="Virgil, Segoe UI Emoji" font-size="15.805071823533225px" fill="#000000" text-anchor="start" style="white-space: pre;" direction="ltr" dominant-baseline="text-before-edge">Functional</text><text x="0" y="19.756339779416532" font-family="Virgil, Segoe UI Emoji" font-size="15.805071823533225px" fill="#000000" text-anchor="start" style="white-space: pre;" direction="ltr" dominant-baseline="text-before-edge">- Real-time log ingestion from producers (simulation, or nodes in live network)</text><text x="0" y="39.512679558833064" font-family="Virgil, Segoe UI Emoji" font-size="15.805071823533225px" fill="#000000" text-anchor="start" style="white-space: pre;" direction="ltr" dominant-baseline="text-before-edge">- Querying of time-series logs for analysis</text><text x="0" y="59.26901933824959" font-family="Virgil, Segoe UI Emoji" font-size="15.805071823533225px" fill="#000000" text-anchor="start" style="white-space: pre;" direction="ltr" dominant-baseline="text-before-edge">- Storage for historical data</text><text x="0" y="79.02535911766613" font-family="Virgil, Segoe UI Emoji" font-size="15.805071823533225px" fill="#000000" text-anchor="start" style="white-space: pre;" direction="ltr" dominant-baseline="text-before-edge">- Support for various formats</text><text x="0" y="98.78169889708266" font-family="Virgil, Segoe UI Emoji" font-size="15.805071823533225px" fill="#000000" text-anchor="start" style="white-space: pre;" direction="ltr" dominant-baseline="text-before-edge">- Unified logging interface</text><text x="0" y="118.53803867649918" font-family="Virgil, Segoe UI Emoji" font-size="15.805071823533225px" fill="#000000" text-anchor="start" style="white-space: pre;" direction="ltr" dominant-baseline="text-before-edge"></text><text x="0" y="138.29437845591573" font-family="Virgil, Segoe UI Emoji" font-size="15.805071823533225px" fill="#000000" text-anchor="start" style="white-space: pre;" direction="ltr" dominant-baseline="text-before-edge"></text></g><g transform="translate(682.9905849038818 167.407619898461) rotate(0 174.6183624267578 92.40101008791599)"><text x="0" y="0" font-family="Virgil, Segoe UI Emoji" font-size="16.42684623785173px" fill="#000000" text-anchor="start" style="white-space: pre;" direction="ltr" dominant-baseline="text-before-edge">Non-functional</text><text x="0" y="20.533557797314664" font-family="Virgil, Segoe UI Emoji" font-size="16.42684623785173px" fill="#000000" text-anchor="start" style="white-space: pre;" direction="ltr" dominant-baseline="text-before-edge">- High availability</text><text x="0" y="41.06711559462933" font-family="Virgil, Segoe UI Emoji" font-size="16.42684623785173px" fill="#000000" text-anchor="start" style="white-space: pre;" direction="ltr" dominant-baseline="text-before-edge">- Low latency</text><text x="0" y="61.60067339194399" font-family="Virgil, Segoe UI Emoji" font-size="16.42684623785173px" fill="#000000" text-anchor="start" style="white-space: pre;" direction="ltr" dominant-baseline="text-before-edge">- Horizontal Scaling</text><text x="0" y="82.13423118925866" font-family="Virgil, Segoe UI Emoji" font-size="16.42684623785173px" fill="#000000" text-anchor="start" style="white-space: pre;" direction="ltr" dominant-baseline="text-before-edge">- Low cost for infrequently accessed data</text><text x="0" y="102.66778898657333" font-family="Virgil, Segoe UI Emoji" font-size="16.42684623785173px" fill="#000000" text-anchor="start" style="white-space: pre;" direction="ltr" dominant-baseline="text-before-edge">- High throughput for log ingestion</text><text x="0" y="123.20134678388798" font-family="Virgil, Segoe UI Emoji" font-size="16.42684623785173px" fill="#000000" text-anchor="start" style="white-space: pre;" direction="ltr" dominant-baseline="text-before-edge">- Fast queries</text><text x="0" y="143.73490458120264" font-family="Virgil, Segoe UI Emoji" font-size="16.42684623785173px" fill="#000000" text-anchor="start" style="white-space: pre;" direction="ltr" dominant-baseline="text-before-edge"></text><text x="0" y="164.2684623785173" font-family="Virgil, Segoe UI Emoji" font-size="16.42684623785173px" fill="#000000" text-anchor="start" style="white-space: pre;" direction="ltr" dominant-baseline="text-before-edge"></text></g><g stroke-linecap="round" transform="translate(68.1285116859882 593.0244599679668) rotate(0 60.76171875 44.681640625)"><path d="M22.34 0 C52.18 1.12, 85.01 1.41, 99.18 0 M22.34 0 C45.56 0.29, 66.57 0.12, 99.18 0 M99.18 0 C113.44 -0.16, 120.77 7.99, 121.52 22.34 M99.18 0 C116.27 -1.53, 122.94 6.09, 121.52 22.34 M121.52 22.34 C122.48 36.69, 119.97 54.38, 121.52 67.02 M121.52 22.34 C122.06 38.71, 122.5 56.57, 121.52 67.02 M121.52 67.02 C120.31 81.65, 115.86 88.7, 99.18 89.36 M121.52 67.02 C121.29 81.46, 115.64 87.17, 99.18 89.36 M99.18 89.36 C75.38 91.44, 55.31 87.89, 22.34 89.36 M99.18 89.36 C76.61 89.97, 52.25 89.07, 22.34 89.36 M22.34 89.36 C6 89.91, -1.04 80.73, 0 67.02 M22.34 89.36 C8.67 89.01, 1.31 83.9, 0 67.02 M0 67.02 C1.58 48.51, 2.29 35.2, 0 22.34 M0 67.02 C-0.25 55.89, -0.06 44.76, 0 22.34 M0 22.34 C-1.27 7.98, 5.82 -1.96, 22.34 0 M0 22.34 C-1.62 7.67, 5.61 0.46, 22.34 0" stroke="#000000" stroke-width="1" fill="none"></path></g><g transform="translate(94.80225588764836 627.7061005929668) rotate(0 34.087974548339844 10)"><text x="34.087974548339844" y="0" font-family="Virgil, Segoe UI Emoji" font-size="16px" fill="#000000" text-anchor="middle" style="white-space: pre;" direction="ltr" dominant-baseline="text-before-edge">Producer</text></g><g stroke-linecap="round" transform="translate(66.8824179359882 806.4932099679668) rotate(0 60.76171875 44.681640625)"><path d="M22.34 0 C52.16 -0.73, 82.5 0.7, 99.18 0 M22.34 0 C38.49 1, 53.79 0.8, 99.18 0 M99.18 0 C113.48 -0.32, 122.36 6.96, 121.52 22.34 M99.18 0 C115.95 1.21, 121.14 9.6, 121.52 22.34 M121.52 22.34 C120.3 34.65, 121.41 47.7, 121.52 67.02 M121.52 22.34 C121.75 35.14, 120.73 47.25, 121.52 67.02 M121.52 67.02 C122.62 81.59, 112.58 91.19, 99.18 89.36 M121.52 67.02 C123.25 80.36, 114.42 88.48, 99.18 89.36 M99.18 89.36 C84.55 88.26, 66.1 88.23, 22.34 89.36 M99.18 89.36 C74.14 87.8, 47.11 88.51, 22.34 89.36 M22.34 89.36 C7.54 88.74, -1.36 80.12, 0 67.02 M22.34 89.36 C5.38 90.23, -0.87 82.72, 0 67.02 M0 67.02 C0.46 54.67, -0.52 45.12, 0 22.34 M0 67.02 C-0.24 55.53, -0.64 43.85, 0 22.34 M0 22.34 C-1.63 8.49, 8.32 0.34, 22.34 0 M0 22.34 C0.36 5.37, 6.71 -0.09, 22.34 0" stroke="#000000" stroke-width="1" fill="none"></path></g><g transform="translate(93.55616213764836 841.1748505929668) rotate(0 34.087974548339844 10)"><text x="34.087974548339844" y="0" font-family="Virgil, Segoe UI Emoji" font-size="16px" fill="#000000" text-anchor="middle" style="white-space: pre;" direction="ltr" dominant-baseline="text-before-edge">Producer</text></g><g stroke-linecap="round" transform="translate(73.9371054359882 1022.4814912179668) rotate(0 60.76171875 44.681640625)"><path d="M22.34 0 C48.66 0.05, 72.97 -0.16, 99.18 0 M22.34 0 C52.32 1.28, 79.49 0.85, 99.18 0 M99.18 0 C113.89 -0.14, 121.92 8.53, 121.52 22.34 M99.18 0 C113.07 0.61, 120.35 8.51, 121.52 22.34 M121.52 22.34 C123.58 29.94, 120.2 40.7, 121.52 67.02 M121.52 22.34 C121.44 38.78, 121.81 53.46, 121.52 67.02 M121.52 67.02 C122.82 81.54, 114.97 89.62, 99.18 89.36 M121.52 67.02 C122.94 81.57, 114.58 90.76, 99.18 89.36 M99.18 89.36 C78.73 88.82, 59.7 89.94, 22.34 89.36 M99.18 89.36 C82.1 89.73, 64.85 90.19, 22.34 89.36 M22.34 89.36 C5.69 89.03, 0.59 81.15, 0 67.02 M22.34 89.36 C5.41 88.77, 1.74 82.03, 0 67.02 M0 67.02 C0.04 54.42, 1.06 40.42, 0 22.34 M0 67.02 C1.39 55.15, 0.12 44.1, 0 22.34 M0 22.34 C1.19 8.95, 5.53 -0.11, 22.34 0 M0 22.34 C-1.74 6.73, 7.47 -2.26, 22.34 0" stroke="#000000" stroke-width="1" fill="none"></path></g><g transform="translate(100.61084963764836 1057.1631318429668) rotate(0 34.087974548339844 10)"><text x="34.087974548339844" y="0" font-family="Virgil, Segoe UI Emoji" font-size="16px" fill="#000000" text-anchor="middle" style="white-space: pre;" direction="ltr" dominant-baseline="text-before-edge">Producer</text></g><g stroke-linecap="round" transform="translate(117.5113241859882 724.1103974679668) rotate(0 63.736328125 17.048828125)"><path d="M8.52 0 C30.75 0.74, 52.46 0, 118.95 0 M8.52 0 C45.09 1.1, 82.71 0.23, 118.95 0 M118.95 0 C126.09 1.31, 125.81 2.74, 127.47 8.52 M118.95 0 C122.88 0.63, 128.34 2.25, 127.47 8.52 M127.47 8.52 C126.83 13.41, 126.38 17.23, 127.47 25.57 M127.47 8.52 C128.2 12.49, 126.67 17.3, 127.47 25.57 M127.47 25.57 C126.66 29.92, 126.62 34, 118.95 34.1 M127.47 25.57 C127.79 32.75, 124.42 33.9, 118.95 34.1 M118.95 34.1 C84.94 34.63, 51.93 35.14, 8.52 34.1 M118.95 34.1 C81.54 33.91, 45.32 33.26, 8.52 34.1 M8.52 34.1 C3.7 33.45, 1.52 32.21, 0 25.57 M8.52 34.1 C1.82 35.02, -0.74 31.93, 0 25.57 M0 25.57 C0.64 20.79, -0.89 16.86, 0 8.52 M0 25.57 C-0.32 18.44, 0.44 13.32, 0 8.52 M0 8.52 C0.08 2.81, 3.2 -1.79, 8.52 0 M0 8.52 C2.21 0.69, 4.58 0.01, 8.52 0" stroke="#000000" stroke-width="1" fill="none"></path></g><g transform="translate(126.17567660298039 731.1592255929668) rotate(0 55.07197570800781 10)"><text x="55.07197570800781" y="0" font-family="Virgil, Segoe UI Emoji" font-size="16px" fill="#000000" text-anchor="middle" style="white-space: pre;" direction="ltr" dominant-baseline="text-before-edge">Daemon Agent</text></g><g stroke-linecap="round" transform="translate(116.2652304359882 937.5791474679668) rotate(0 63.736328125 17.048828125)"><path d="M8.52 0 C49.21 1.29, 85.1 -1.6, 118.95 0 M8.52 0 C35.29 -0.26, 62.56 -0.8, 118.95 0 M118.95 0 C125.47 -0.49, 129.1 3.9, 127.47 8.52 M118.95 0 C124.25 2.16, 127.52 2.69, 127.47 8.52 M127.47 8.52 C127.3 12.67, 126.91 19.1, 127.47 25.57 M127.47 8.52 C126.96 14.29, 128 19.02, 127.47 25.57 M127.47 25.57 C125.97 33.08, 126.13 32.74, 118.95 34.1 M127.47 25.57 C127.81 30.37, 122.46 34.3, 118.95 34.1 M118.95 34.1 C91.89 33.17, 68.55 33.98, 8.52 34.1 M118.95 34.1 C95.87 33.02, 73.34 32.85, 8.52 34.1 M8.52 34.1 C1.48 32.3, -1.8 32.01, 0 25.57 M8.52 34.1 C1.97 34.9, -1.09 31.73, 0 25.57 M0 25.57 C-0.42 20.02, -0.62 14.52, 0 8.52 M0 25.57 C-0.29 20.46, -0.71 14.69, 0 8.52 M0 8.52 C0.87 3.18, 3.16 -1.81, 8.52 0 M0 8.52 C-0.73 2.75, 2.04 -1.46, 8.52 0" stroke="#000000" stroke-width="1" fill="none"></path></g><g transform="translate(124.92958285298039 944.6279755929668) rotate(0 55.07197570800781 10)"><text x="55.07197570800781" y="0" font-family="Virgil, Segoe UI Emoji" font-size="16px" fill="#000000" text-anchor="middle" style="white-space: pre;" direction="ltr" dominant-baseline="text-before-edge">Daemon Agent</text></g><g stroke-linecap="round" transform="translate(123.3199179359882 1153.5674287179668) rotate(0 63.736328125 17.048828125)"><path d="M8.52 0 C45.63 -0.11, 81.36 0.29, 118.95 0 M8.52 0 C31.54 -0.49, 56.41 -0.78, 118.95 0 M118.95 0 C125.03 1.09, 126.6 3.37, 127.47 8.52 M118.95 0 C123.46 1.07, 125.32 3.77, 127.47 8.52 M127.47 8.52 C126.35 13.16, 128.58 16.82, 127.47 25.57 M127.47 8.52 C128 14.52, 128.06 21.45, 127.47 25.57 M127.47 25.57 C128.37 31.51, 125.86 33.8, 118.95 34.1 M127.47 25.57 C127.97 32.65, 123.5 33.68, 118.95 34.1 M118.95 34.1 C87.99 34.71, 57.47 34.39, 8.52 34.1 M118.95 34.1 C81.9 34.69, 43.1 34, 8.52 34.1 M8.52 34.1 C3.43 33.33, -1.77 30.74, 0 25.57 M8.52 34.1 C4.58 34.21, 0.39 29.16, 0 25.57 M0 25.57 C0.58 20.42, -0.72 10.71, 0 8.52 M0 25.57 C-0.42 20.36, 0.34 15.86, 0 8.52 M0 8.52 C-1.92 2.73, 1.33 -0.63, 8.52 0 M0 8.52 C0.02 0.58, 1.75 -0.98, 8.52 0" stroke="#000000" stroke-width="1" fill="none"></path></g><g transform="translate(131.9842703529804 1160.6162568429668) rotate(0 55.07197570800781 10)"><text x="55.07197570800781" y="0" font-family="Virgil, Segoe UI Emoji" font-size="16px" fill="#000000" text-anchor="middle" style="white-space: pre;" direction="ltr" dominant-baseline="text-before-edge">Daemon Agent</text></g><g stroke-linecap="round" transform="translate(158.1558554359882 658.7393037179668) rotate(0 44.232421875 27.5390625)"><path d="M24.93 3.14 C31.92 0.73, 43.44 -0.33, 52.09 0.47 C60.73 1.28, 70.82 4.02, 76.81 7.97 C82.79 11.91, 87.02 18.53, 88 24.15 C88.97 29.76, 86.77 36.79, 82.64 41.65 C78.52 46.5, 71.06 51.01, 63.24 53.26 C55.43 55.51, 44.22 56.3, 35.77 55.15 C27.31 53.99, 18.32 50.22, 12.49 46.32 C6.66 42.43, 1.98 36.99, 0.77 31.76 C-0.44 26.54, -0.46 20.2, 5.23 14.98 C10.93 9.77, 28 3.04, 34.93 0.49 C41.85 -2.06, 46.56 -0.74, 46.78 -0.29 M53.67 -0.21 C61.7 0.33, 71.36 5.56, 77.23 9.53 C83.09 13.5, 88.17 18.6, 88.85 23.61 C89.53 28.62, 85.45 34.89, 81.3 39.58 C77.15 44.27, 71.72 49.23, 63.97 51.76 C56.22 54.29, 43.54 55.94, 34.79 54.78 C26.03 53.62, 17.22 48.95, 11.44 44.81 C5.65 40.67, 1.14 35.16, 0.08 29.96 C-0.99 24.75, 0.58 18.22, 5.03 13.6 C9.49 8.98, 18.97 4.56, 26.81 2.22 C34.65 -0.12, 47.66 -0.27, 52.05 -0.45 C56.44 -0.63, 52.94 0.63, 53.14 1.14" stroke="#000000" stroke-width="1" fill="none"></path></g><g transform="translate(184.81228854145695 676.3053083766966) rotate(0 17.57598876953125 10)"><text x="17.57598876953125" y="0" font-family="Virgil, Segoe UI Emoji" font-size="16px" fill="#000000" text-anchor="middle" style="white-space: pre;" direction="ltr" dominant-baseline="text-before-edge">Logs</text></g><g stroke-linecap="round" transform="translate(156.9097616859882 872.2080537179668) rotate(0 44.232421875 27.5390625)"><path d="M25.91 2.24 C33.25 -0.37, 44.43 -0.96, 52.82 0.18 C61.22 1.32, 70.42 4.96, 76.26 9.07 C82.1 13.18, 86.64 19.6, 87.86 24.85 C89.08 30.11, 87.52 36, 83.56 40.6 C79.6 45.2, 72.01 50.08, 64.08 52.46 C56.14 54.83, 44.73 55.95, 35.96 54.84 C27.19 53.74, 17.39 49.94, 11.45 45.84 C5.51 41.73, 1.37 35.53, 0.32 30.23 C-0.73 24.93, 0.7 18.65, 5.16 14.04 C9.62 9.42, 23.01 4.61, 27.07 2.54 C31.12 0.47, 29.16 1.16, 29.52 1.62 M41.72 -0.92 C50.1 -2.04, 60.44 0.43, 67.43 3.43 C74.41 6.42, 80.48 11.82, 83.62 17.04 C86.76 22.26, 88.08 29.7, 86.25 34.74 C84.43 39.79, 79.12 43.83, 72.65 47.3 C66.18 50.77, 55.95 55.15, 47.41 55.54 C38.87 55.94, 28.52 52.78, 21.41 49.67 C14.3 46.57, 8.16 41.67, 4.73 36.89 C1.29 32.12, -0.98 26.12, 0.81 21.01 C2.59 15.89, 8.99 9.91, 15.45 6.2 C21.91 2.49, 35.6 -0.42, 39.58 -1.25 C43.56 -2.08, 39.19 0.44, 39.32 1.21" stroke="#000000" stroke-width="1" fill="none"></path></g><g transform="translate(183.56619479145695 889.7740583766966) rotate(0 17.57598876953125 10)"><text x="17.57598876953125" y="0" font-family="Virgil, Segoe UI Emoji" font-size="16px" fill="#000000" text-anchor="middle" style="white-space: pre;" direction="ltr" dominant-baseline="text-before-edge">Logs</text></g><g stroke-linecap="round" transform="translate(163.9644491859882 1088.1963349679668) rotate(0 44.232421875 27.5390625)"><path d="M49.47 -0.83 C57.9 -0.83, 67.7 3.17, 74.03 6.97 C80.35 10.78, 85.56 16.78, 87.42 22 C89.28 27.22, 88.66 33.48, 85.19 38.29 C81.73 43.1, 74.15 48.25, 66.64 50.87 C59.12 53.49, 48.7 54.51, 40.1 53.99 C31.5 53.47, 21.42 51.35, 15.06 47.77 C8.69 44.18, 3.91 37.72, 1.91 32.48 C-0.09 27.23, -0.4 21.22, 3.06 16.32 C6.52 11.41, 13.44 5.53, 22.65 3.06 C31.86 0.58, 51.14 1.23, 58.32 1.46 C65.5 1.7, 66.2 3.97, 65.73 4.48 M41.05 -0.11 C49.13 -0.83, 59.94 2.02, 67.12 4.76 C74.3 7.51, 80.8 11.71, 84.11 16.36 C87.42 21.01, 88.78 27.5, 86.96 32.69 C85.14 37.88, 79.54 43.97, 73.2 47.5 C66.86 51.03, 57.46 53.13, 48.93 53.85 C40.4 54.57, 29.5 54.37, 22.02 51.82 C14.55 49.27, 7.46 43.46, 4.08 38.54 C0.7 33.62, 0.13 27.6, 1.74 22.28 C3.34 16.96, 7.24 10.4, 13.71 6.61 C20.18 2.82, 36.37 0.6, 40.57 -0.45 C44.76 -1.51, 38.7 -0.29, 38.88 0.28" stroke="#000000" stroke-width="1" fill="none"></path></g><g transform="translate(190.62088229145695 1105.7623396266968) rotate(0 17.57598876953125 10)"><text x="17.57598876953125" y="0" font-family="Virgil, Segoe UI Emoji" font-size="16px" fill="#000000" text-anchor="middle" style="white-space: pre;" direction="ltr" dominant-baseline="text-before-edge">Logs</text></g><g stroke-linecap="round" transform="translate(417.32581442998196 708.7392197531996) rotate(0 56.421875 167.4375)"><path d="M28.21 0 C51.22 1.55, 70.76 -0.96, 84.63 0 M28.21 0 C42.13 -0.5, 56.75 0.1, 84.63 0 M84.63 0 C103.1 -1.65, 111.11 8.58, 112.84 28.21 M84.63 0 C101.82 -0.22, 114.88 11.26, 112.84 28.21 M112.84 28.21 C113.82 98.4, 114.6 170.83, 112.84 306.66 M112.84 28.21 C113.78 86.27, 113.55 143.49, 112.84 306.66 M112.84 306.66 C114.43 323.9, 105.38 333.56, 84.63 334.88 M112.84 306.66 C115.05 327.36, 103.56 334.71, 84.63 334.88 M84.63 334.88 C72.1 333.97, 58.59 332.93, 28.21 334.88 M84.63 334.88 C67.61 335.16, 49.37 335.09, 28.21 334.88 M28.21 334.88 C9.7 335.39, -0.35 324.23, 0 306.66 M28.21 334.88 C9.31 334.19, 0.27 325.65, 0 306.66 M0 306.66 C0.94 249.19, 0.13 189.93, 0 28.21 M0 306.66 C0.71 206.68, 0.71 107.54, 0 28.21 M0 28.21 C-1.94 10.62, 10.96 1.51, 28.21 0 M0 28.21 C-1.9 9.47, 10.75 -0.45, 28.21 0" stroke="#000000" stroke-width="1" fill="none"></path></g><g stroke-linecap="round" transform="translate(1303.6942389083029 489.2725905097134) rotate(0 40.0737000669493 128.25)"><path d="M20.04 0 C30.56 -1.72, 39.33 -1.24, 60.11 0 M20.04 0 C33.36 0.94, 45.73 -0.72, 60.11 0 M60.11 0 C75.26 -0.5, 79.19 5.3, 80.15 20.04 M60.11 0 C75.11 1.79, 80.41 4.88, 80.15 20.04 M80.15 20.04 C80.42 101.03, 81.35 182.13, 80.15 236.46 M80.15 20.04 C80.99 73.54, 80.57 126.9, 80.15 236.46 M80.15 236.46 C80.28 250.87, 74.6 255.13, 60.11 256.5 M80.15 236.46 C78.66 250.31, 75.38 258.7, 60.11 256.5 M60.11 256.5 C43.6 256.6, 29.66 258.01, 20.04 256.5 M60.11 256.5 C46.14 256.66, 33.24 257.46, 20.04 256.5 M20.04 256.5 C6.66 256.78, -1.45 248.06, 0 236.46 M20.04 256.5 C8.3 255.17, -1.41 252.09, 0 236.46 M0 236.46 C-0.18 158.37, -0.9 80.6, 0 20.04 M0 236.46 C-1.57 161.55, -1.84 85.16, 0 20.04 M0 20.04 C0.96 5.89, 6.94 0.23, 20.04 0 M0 20.04 C1.28 6.72, 7.97 -0.04, 20.04 0" stroke="#000000" stroke-width="1" fill="none"></path></g><g transform="translate(442.47034567998196 864.0204697531996) rotate(0 34.15998077392578 20)"><text x="0" y="0" font-family="Virgil, Segoe UI Emoji" font-size="16px" fill="#000000" text-anchor="start" style="white-space: pre;" direction="ltr" dominant-baseline="text-before-edge">Load </text><text x="0" y="20" font-family="Virgil, Segoe UI Emoji" font-size="16px" fill="#000000" text-anchor="start" style="white-space: pre;" direction="ltr" dominant-baseline="text-before-edge">Balancer</text></g><g transform="translate(1317.7247483683846 596.7483771644779) rotate(0 26.346104341595037 15.425128319571527)"><text x="0" y="0" font-family="Virgil, Segoe UI Emoji" font-size="12.340102655657219px" fill="#000000" text-anchor="start" style="white-space: pre;" direction="ltr" dominant-baseline="text-before-edge">Load </text><text x="0" y="15.425128319571524" font-family="Virgil, Segoe UI Emoji" font-size="12.340102655657219px" fill="#000000" text-anchor="start" style="white-space: pre;" direction="ltr" dominant-baseline="text-before-edge">Balancer</text></g><g stroke-linecap="round" transform="translate(596.558516141295 718.6314374735276) rotate(0 65.1796875 115.5625)"><path d="M32 0 C48.1 1.34, 67.12 0.94, 98.36 0 M32 0 C47.87 -0.67, 65.25 -0.37, 98.36 0 M98.36 0 C118.86 1.84, 129.74 9.72, 130.36 32 M98.36 0 C119.16 -0.93, 131.14 9.7, 130.36 32 M130.36 32 C129.77 66.15, 129.75 101.32, 130.36 199.13 M130.36 32 C131.79 87.24, 131.62 143.61, 130.36 199.13 M130.36 199.13 C128.93 221.69, 121.51 230.09, 98.36 231.13 M130.36 199.13 C129.18 220.87, 120.14 232.1, 98.36 231.13 M98.36 231.13 C75.94 232.17, 53.87 230.17, 32 231.13 M98.36 231.13 C73.56 230.84, 49.75 231.99, 32 231.13 M32 231.13 C9.26 230.58, 1.96 219.11, 0 199.13 M32 231.13 C12.25 230.36, -1.78 221.07, 0 199.13 M0 199.13 C-0.52 160.3, -0.84 123.63, 0 32 M0 199.13 C0.74 138.4, 1.18 78.82, 0 32 M0 32 C1.18 8.93, 11.05 0.32, 32 0 M0 32 C1.48 11.21, 11.46 0.45, 32 0" stroke="#000000" stroke-width="1" fill="none"></path></g><g stroke-linecap="round" transform="translate(611.765547391295 743.5923749735276) rotate(0 10.4921875 91.732421875)"><path d="M5.25 0 C8.64 -0.86, 13.01 -0.39, 15.74 0 M5.25 0 C8.48 0.17, 11.84 0.22, 15.74 0 M15.74 0 C19.92 0.39, 22.03 0.4, 20.98 5.25 M15.74 0 C21.41 -2.03, 22.46 1.97, 20.98 5.25 M20.98 5.25 C20.98 49.65, 21.75 97.61, 20.98 178.22 M20.98 5.25 C23.06 40.47, 23.06 76.7, 20.98 178.22 M20.98 178.22 C20.52 179.74, 18.36 182.56, 15.74 183.46 M20.98 178.22 C19.26 183.18, 17.25 182.17, 15.74 183.46 M15.74 183.46 C13.68 184.16, 9.62 183.38, 5.25 183.46 M15.74 183.46 C12.06 182.96, 8.8 183.74, 5.25 183.46 M5.25 183.46 C2.6 184.1, 0.19 179.85, 0 178.22 M5.25 183.46 C2.38 183.32, -1.1 179.98, 0 178.22 M0 178.22 C-0.28 121.94, -1.89 66.18, 0 5.25 M0 178.22 C0.73 112.4, 2.15 46.78, 0 5.25 M0 5.25 C0.72 2.96, -0.02 1.97, 5.25 0 M0 5.25 C-0.87 0.74, 3.27 -1.5, 5.25 0" stroke="#000000" stroke-width="1" fill="none"></path></g><g stroke-linecap="round" transform="translate(647.999922391295 743.0454999735276) rotate(0 10.4921875 91.732421875)"><path d="M5.25 0 C6.91 -0.42, 9.86 -0.35, 15.74 0 M5.25 0 C7.9 -0.58, 11.23 -0.26, 15.74 0 M15.74 0 C19.28 0.23, 20.6 0.24, 20.98 5.25 M15.74 0 C19.1 0.79, 20.83 3.32, 20.98 5.25 M20.98 5.25 C21.01 59.16, 22.92 109.11, 20.98 178.22 M20.98 5.25 C19.48 54.67, 20.29 102.48, 20.98 178.22 M20.98 178.22 C22.9 183, 18 184.08, 15.74 183.46 M20.98 178.22 C20.11 180.28, 17.26 181.17, 15.74 183.46 M15.74 183.46 C13.54 183.94, 10.18 184.37, 5.25 183.46 M15.74 183.46 C12.83 183.33, 10.37 183.59, 5.25 183.46 M5.25 183.46 C0.89 181.67, -1.9 183.62, 0 178.22 M5.25 183.46 C1.59 183.78, 0.35 180.97, 0 178.22 M0 178.22 C-1.44 115.78, -1.56 55.95, 0 5.25 M0 178.22 C1.55 133.16, 0.81 89.64, 0 5.25 M0 5.25 C0.29 1.84, 2.78 1.03, 5.25 0 M0 5.25 C1.89 0.43, -0.51 1.37, 5.25 0" stroke="#000000" stroke-width="1" fill="none"></path></g><g stroke-linecap="round" transform="translate(686.109297391295 743.8579999735276) rotate(0 10.4921875 91.732421875)"><path d="M5.25 0 C7.34 0.73, 10.19 0.79, 15.74 0 M5.25 0 C7.49 0.58, 9.89 -0.03, 15.74 0 M15.74 0 C18.88 -0.85, 19.89 3.33, 20.98 5.25 M15.74 0 C20.37 -2, 20.45 0.1, 20.98 5.25 M20.98 5.25 C20.39 74.15, 21 141.41, 20.98 178.22 M20.98 5.25 C20.38 62.64, 21.04 121.94, 20.98 178.22 M20.98 178.22 C21.91 183.09, 20.89 182.19, 15.74 183.46 M20.98 178.22 C20.83 180.93, 17.47 184.5, 15.74 183.46 M15.74 183.46 C11.76 183.86, 8.22 182.89, 5.25 183.46 M15.74 183.46 C11.98 183.13, 8.47 183.21, 5.25 183.46 M5.25 183.46 C0.31 182.34, -1.98 181.71, 0 178.22 M5.25 183.46 C2.83 184.85, 0.68 182.4, 0 178.22 M0 178.22 C-2.33 125.89, -2.56 70.01, 0 5.25 M0 178.22 C1.29 132.22, 1.75 85.71, 0 5.25 M0 5.25 C1.43 1.53, -0.2 -1.3, 5.25 0 M0 5.25 C1.35 1.49, 3.41 -0.78, 5.25 0" stroke="#000000" stroke-width="1" fill="none"></path></g><g transform="translate(590.906172391295 959.8033124735276) rotate(0 71.5839614868164 10)"><text x="0" y="0" font-family="Virgil, Segoe UI Emoji" font-size="16px" fill="#000000" text-anchor="start" style="white-space: pre;" direction="ltr" dominant-baseline="text-before-edge">Distributed Queue</text></g><g stroke-linecap="round"><g transform="translate(541.7399990002945 850.6808607139751) rotate(0 22.026446070500242 -0.0735329410714769)"><path d="M-0.39 0.06 C7.05 0.07, 36.78 0.33, 44.11 0.29 M0.41 -0.38 C7.82 -0.54, 36.33 -0.58, 43.71 -0.45" stroke="#000000" stroke-width="1" fill="none"></path></g><g transform="translate(541.7399990002945 850.6808607139751) rotate(0 22.026446070500242 -0.0735329410714769)"><path d="M22.96 6.95 C27.4 5.58, 32.42 3.1, 43.71 -0.45 M22.96 6.95 C29.35 4.74, 35.02 3.01, 43.71 -0.45" stroke="#000000" stroke-width="1" fill="none"></path></g><g transform="translate(541.7399990002945 850.6808607139751) rotate(0 22.026446070500242 -0.0735329410714769)"><path d="M23.06 -8.11 C27.51 -6.33, 32.51 -5.67, 43.71 -0.45 M23.06 -8.11 C29.48 -5.93, 35.12 -3.25, 43.71 -0.45" stroke="#000000" stroke-width="1" fill="none"></path></g></g><mask></mask><g stroke-linecap="round"><g transform="translate(543.2048427502945 860.9333492944345) rotate(0 20.772539820500242 15.719845262519385)"><path d="M0.72 0.03 C7.3 5.2, 33.74 25.16, 40.44 30.5 M-0.36 -1 C6.49 4.33, 35.88 26.37, 42.58 31.55" stroke="#000000" stroke-width="1" fill="none"></path></g><g transform="translate(543.2048427502945 860.9333492944345) rotate(0 20.772539820500242 15.719845262519385)"><path d="M18.7 24.15 C27.81 24.99, 35.29 28.61, 42.58 31.55 M18.7 24.15 C27.22 27.3, 34.71 29.35, 42.58 31.55" stroke="#000000" stroke-width="1" fill="none"></path></g><g transform="translate(543.2048427502945 860.9333492944345) rotate(0 20.772539820500242 15.719845262519385)"><path d="M29.04 10.53 C34.16 16.61, 37.7 25.42, 42.58 31.55 M29.04 10.53 C34.03 18.47, 37.89 25.29, 42.58 31.55" stroke="#000000" stroke-width="1" fill="none"></path></g></g><mask></mask><g stroke-linecap="round"><g transform="translate(541.1579677502946 831.163122028526) rotate(0 21.026446070500185 -15.080207449131422)"><path d="M-0.3 0.24 C6.5 -4.64, 34.19 -24.64, 41.31 -29.88 M1.74 -0.67 C8.88 -5.89, 36.94 -26.9, 43.64 -31.85" stroke="#000000" stroke-width="1" fill="none"></path></g><g transform="translate(541.1579677502946 831.163122028526) rotate(0 21.026446070500185 -15.080207449131422)"><path d="M29.91 -10.96 C35.1 -19.3, 39.85 -24.54, 43.64 -31.85 M29.91 -10.96 C33.72 -16.05, 35.56 -19.45, 43.64 -31.85" stroke="#000000" stroke-width="1" fill="none"></path></g><g transform="translate(541.1579677502946 831.163122028526) rotate(0 21.026446070500185 -15.080207449131422)"><path d="M19.69 -24.68 C28.31 -28.3, 36.55 -28.86, 43.64 -31.85 M19.69 -24.68 C25.78 -26.76, 29.81 -27.22, 43.64 -31.85" stroke="#000000" stroke-width="1" fill="none"></path></g></g><mask></mask><g transform="translate(1011.6786751750141 487.6826246894009) rotate(0 47.15995788574219 10)"><text x="0" y="0" font-family="Virgil, Segoe UI Emoji" font-size="16px" fill="#000000" text-anchor="start" style="white-space: pre;" direction="ltr" dominant-baseline="text-before-edge">Aggregators</text></g><g transform="translate(891.1122689250141 894.9560621894009) rotate(0 33.679969787597656 10)"><text x="0" y="0" font-family="Virgil, Segoe UI Emoji" font-size="16px" fill="#000000" text-anchor="start" style="white-space: pre;" direction="ltr" dominant-baseline="text-before-edge">Indexers</text></g><g stroke-linecap="round" transform="translate(988.7411751750141 474.0693434394009) rotate(0 70.9140625 138.3671875)"><path d="M32 0 C52.92 0.83, 75.88 -1.12, 109.83 0 M109.83 0 C132.71 -1.41, 140.91 8.88, 141.83 32 M141.83 32 C141.41 83.17, 143.26 133.06, 141.83 244.73 M141.83 244.73 C142.69 266.74, 131.14 276.37, 109.83 276.73 M109.83 276.73 C91.74 275.09, 75.58 275.48, 32 276.73 M32 276.73 C9.01 278.43, -0.61 264.19, 0 244.73 M0 244.73 C-2.8 167.57, -2.24 89.43, 0 32 M0 32 C-1.19 8.92, 12.11 0, 32 0" stroke="#000000" stroke-width="1.5" fill="none" stroke-dasharray="1.5 7"></path></g><g stroke-linecap="round" transform="translate(875.4638314250141 881.0068434394009) rotate(0 70.9140625 138.3671875)"><path d="M32 0 C53.56 -2.04, 72.26 0.14, 109.83 0 M109.83 0 C132.97 -0.55, 142.4 11.71, 141.83 32 M141.83 32 C140.37 96.62, 143.74 161.39, 141.83 244.73 M141.83 244.73 C143.61 266.81, 130.75 276.01, 109.83 276.73 M109.83 276.73 C87.47 277.84, 60.56 278.44, 32 276.73 M32 276.73 C12.2 276.02, 1.56 267.53, 0 244.73 M0 244.73 C-1.11 175.32, -0.04 107.25, 0 32 M0 32 C-1.75 9.65, 10.15 -1.2, 32 0" stroke="#000000" stroke-width="1.5" fill="none" stroke-dasharray="1.5 7"></path></g><g stroke-linecap="round" transform="translate(841.3811898234516 445.7620924628384) rotate(0 423.59765625 168.85546875)"><path d="M32 0 C244.3 0.04, 457.29 -1.18, 815.2 0 M815.2 0 C836.25 -1.16, 848.06 10.07, 847.2 32 M847.2 32 C845.54 141.64, 846.06 248.69, 847.2 305.71 M847.2 305.71 C848.2 327.87, 834.67 338.23, 815.2 337.71 M815.2 337.71 C582.47 337.97, 349.2 336.66, 32 337.71 M32 337.71 C9.42 336.57, -1.76 326.49, 0 305.71 M0 305.71 C0.95 197.64, 0.85 89.09, 0 32 M0 32 C-0.95 10.79, 11.24 -1.78, 32 0" stroke="#000000" stroke-width="1.5" fill="none" stroke-dasharray="8 9"></path></g><g stroke-linecap="round" transform="translate(838.8186898234516 824.7738112128384) rotate(0 428.556640625 222.01953125)"><path d="M32 0 C196.13 -2.32, 360.63 -3.39, 825.11 0 M825.11 0 C845.46 0.23, 856.43 9.76, 857.11 32 M857.11 32 C856.83 146, 855.84 259.66, 857.11 412.04 M857.11 412.04 C855.59 434.78, 848.31 445.91, 825.11 444.04 M825.11 444.04 C606.04 445.58, 388.21 446.87, 32 444.04 M32 444.04 C9.72 444.01, -1.02 433.14, 0 412.04 M0 412.04 C-1.53 311.53, -2.47 210.9, 0 32 M0 32 C-1.63 12.13, 10.79 1.75, 32 0" stroke="#000000" stroke-width="1.5" fill="none" stroke-dasharray="8 9"></path></g><g transform="translate(862.7522835734516 452.0433424628384) rotate(0 58.13996124267578 12.5)"><text x="0" y="0" font-family="Virgil, Segoe UI Emoji" font-size="20px" fill="#000000" text-anchor="start" style="white-space: pre;" direction="ltr" dominant-baseline="text-before-edge">FAST PATH</text></g><g transform="translate(869.3460335734516 837.1722487128384) rotate(0 58.50996398925781 12.5)"><text x="0" y="0" font-family="Virgil, Segoe UI Emoji" font-size="20px" fill="#000000" text-anchor="start" style="white-space: pre;" direction="ltr" dominant-baseline="text-before-edge">SLOW PATH</text></g><g transform="translate(100.96445937007547 128.4055225828177) rotate(0 88.0599594116211 17.5)"><text x="0" y="0" font-family="Virgil, Segoe UI Emoji" font-size="28px" fill="#000000" text-anchor="start" style="white-space: pre;" direction="ltr" dominant-baseline="text-before-edge">Requirements</text></g><g transform="translate(428.23137017531155 10) rotate(0 218.9879150390625 22.5)"><text x="0" y="0" font-family="Virgil, Segoe UI Emoji" font-size="36px" fill="#000000" text-anchor="start" style="white-space: pre;" direction="ltr" dominant-baseline="text-before-edge">High Level System Design</text></g><g stroke-linecap="round"><g transform="translate(868.2195841753959 72.53988298185794) rotate(0 -218.56631729595495 -1.9901502714989476)"><path d="M2.32 -1.14 C-71.11 -1.51, -365.04 -1.11, -438.55 -1.57 M0.13 -4.22 C-72.55 -5.39, -360.76 -5.85, -432.92 -5.28" stroke="#000000" stroke-width="2" fill="none"></path></g></g><mask></mask></svg>